<svg xmlns="http://www.w3.org/2000/svg" width="362" height="563" viewBox="0 0 362 563" fill="none">
<g clip-path="url(#clip0_1_3)">
<rect width="362" height="563" fill="white"/>
<path d="M11.0469 265.703V267.137H10.9062C10.8229 266.806 10.7305 266.569 10.6289 266.426C10.5273 266.28 10.388 266.164 10.2109 266.078C10.112 266.031 9.9388 266.008 9.69141 266.008H9.29688V270.094C9.29688 270.365 9.3112 270.534 9.33984 270.602C9.37109 270.669 9.42969 270.729 9.51562 270.781C9.60417 270.831 9.72396 270.855 9.875 270.855H10.0508V271H7.27734V270.855H7.45312C7.60677 270.855 7.73047 270.828 7.82422 270.773C7.89193 270.737 7.94531 270.674 7.98438 270.586C8.01302 270.523 8.02734 270.359 8.02734 270.094V266.008H7.64453C7.28776 266.008 7.02865 266.083 6.86719 266.234C6.64062 266.445 6.4974 266.746 6.4375 267.137H6.28906V265.703H11.0469ZM15.6133 268.246C15.6445 268.23 15.6719 268.198 15.6953 268.148C15.7057 268.122 15.7057 268.1 15.6953 268.082C15.6849 268.061 15.6328 268.022 15.5391 267.965C15.5 267.939 15.4674 267.902 15.4414 267.855C15.3789 267.749 15.3607 267.646 15.3867 267.547C15.4154 267.443 15.4844 267.361 15.5938 267.301C15.7031 267.241 15.819 267.229 15.9414 267.266C16.181 267.339 16.3008 267.507 16.3008 267.77C16.3008 267.84 16.2878 267.914 16.2617 267.992C16.2044 268.167 16.0729 268.293 15.8672 268.371C15.6745 268.447 15.4297 268.483 15.1328 268.48V270.207C15.1328 270.475 15.1589 270.65 15.2109 270.73C15.2552 270.798 15.3607 270.841 15.5273 270.859V271H14.0391V270.512C13.7057 270.91 13.3359 271.109 12.9297 271.109C12.7292 271.109 12.5469 271.046 12.3828 270.918C12.224 270.798 12.1159 270.652 12.0586 270.48C12.0039 270.309 11.9766 270.012 11.9766 269.59V268.141C11.9766 267.872 11.9505 267.701 11.8984 267.625C11.8542 267.557 11.7487 267.513 11.582 267.492V267.348H13.0703V269.844C13.0703 270.219 13.1224 270.444 13.2266 270.52C13.2786 270.559 13.3398 270.578 13.4102 270.578C13.6003 270.578 13.8099 270.417 14.0391 270.094V268.141C14.0391 267.872 14.013 267.701 13.9609 267.625C13.9167 267.557 13.8112 267.513 13.6445 267.492V267.348H15.1328V268.336C15.3438 268.326 15.5039 268.296 15.6133 268.246ZM12.2656 265.523H13.4414L13.8945 266.879H13.5625L12.2656 265.523ZM17.4766 267.242C17.6562 267.242 17.8086 267.306 17.9336 267.434C18.0612 267.559 18.125 267.711 18.125 267.891C18.125 268.07 18.0612 268.224 17.9336 268.352C17.8086 268.477 17.6562 268.539 17.4766 268.539C17.2969 268.539 17.1432 268.477 17.0156 268.352C16.8906 268.224 16.8281 268.07 16.8281 267.891C16.8281 267.711 16.8906 267.559 17.0156 267.434C17.1432 267.306 17.2969 267.242 17.4766 267.242ZM17.4727 269.797C17.6549 269.797 17.8086 269.861 17.9336 269.988C18.0612 270.116 18.125 270.27 18.125 270.449C18.125 270.629 18.0612 270.783 17.9336 270.91C17.806 271.035 17.6523 271.098 17.4727 271.098C17.293 271.098 17.1393 271.035 17.0117 270.91C16.8867 270.783 16.8242 270.629 16.8242 270.449C16.8242 270.27 16.8867 270.116 17.0117 269.988C17.1393 269.861 17.293 269.797 17.4727 269.797Z" fill="#010101"/>
<path d="M6.13672 307V306.855H6.3125C6.46615 306.855 6.58333 306.832 6.66406 306.785C6.7474 306.736 6.80859 306.669 6.84766 306.586C6.8737 306.529 6.88672 306.365 6.88672 306.094V304.352H6.13672V304.062H6.88672V302.609C6.88672 302.339 6.87109 302.169 6.83984 302.102C6.8112 302.034 6.7526 301.975 6.66406 301.926C6.57812 301.874 6.46094 301.848 6.3125 301.848H6.13672V301.703H8.51172C9.14453 301.703 9.65365 301.789 10.0391 301.961C10.5104 302.172 10.8672 302.491 11.1094 302.918C11.3516 303.345 11.4727 303.828 11.4727 304.367C11.4727 304.74 11.4128 305.083 11.293 305.398C11.1758 305.711 11.0208 305.97 10.8281 306.176C10.638 306.379 10.418 306.543 10.168 306.668C9.92057 306.79 9.61719 306.885 9.25781 306.953C9.10156 306.984 8.85286 307 8.51172 307H6.13672ZM8.16016 302.004L8.15625 304.062H9.33203V304.352H8.15625L8.16016 306.137C8.16016 306.355 8.17057 306.49 8.19141 306.539C8.21224 306.589 8.24609 306.626 8.29297 306.652C8.36589 306.691 8.46745 306.711 8.59766 306.711C9.03255 306.711 9.36589 306.562 9.59766 306.266C9.90755 305.865 10.0625 305.242 10.0625 304.398C10.0625 303.719 9.95573 303.176 9.74219 302.77C9.57552 302.452 9.35938 302.236 9.09375 302.121C8.90625 302.04 8.59505 302.001 8.16016 302.004ZM15.1445 305.043H13.1406C13.1641 305.527 13.293 305.91 13.5273 306.191C13.707 306.408 13.9232 306.516 14.1758 306.516C14.332 306.516 14.474 306.473 14.6016 306.387C14.7292 306.298 14.8659 306.141 15.0117 305.914L15.1445 306C14.9466 306.404 14.7279 306.69 14.4883 306.859C14.2487 307.026 13.9714 307.109 13.6562 307.109C13.1146 307.109 12.7044 306.901 12.4258 306.484C12.2018 306.148 12.0898 305.732 12.0898 305.234C12.0898 304.625 12.2539 304.141 12.582 303.781C12.9128 303.419 13.2995 303.238 13.7422 303.238C14.112 303.238 14.4323 303.391 14.7031 303.695C14.9766 303.997 15.1237 304.447 15.1445 305.043ZM14.1836 304.781C14.1836 304.362 14.1602 304.074 14.1133 303.918C14.069 303.762 13.9987 303.643 13.9023 303.562C13.8477 303.516 13.7747 303.492 13.6836 303.492C13.5482 303.492 13.4375 303.559 13.3516 303.691C13.1979 303.923 13.1211 304.241 13.1211 304.645V304.781H14.1836ZM14.1797 301.426L14.9727 302.918H14.6719L13.7422 302.113L12.7852 302.895H12.4648L13.2969 301.426H14.1797ZM14.918 299.871L13.6562 301.18H13.3203L13.7422 299.871H14.918ZM17.0977 303.348V303.82C17.2852 303.617 17.4648 303.47 17.6367 303.379C17.8086 303.285 17.9935 303.238 18.1914 303.238C18.4284 303.238 18.625 303.305 18.7812 303.438C18.9375 303.568 19.0417 303.73 19.0938 303.926C19.1354 304.074 19.1562 304.359 19.1562 304.781V306.203C19.1562 306.484 19.181 306.66 19.2305 306.73C19.2826 306.798 19.3893 306.841 19.5508 306.859V307H17.7031V306.859C17.8411 306.841 17.9401 306.784 18 306.688C18.0417 306.622 18.0625 306.461 18.0625 306.203V304.578C18.0625 304.279 18.0508 304.09 18.0273 304.012C18.0039 303.934 17.9635 303.874 17.9062 303.832C17.8516 303.788 17.7904 303.766 17.7227 303.766C17.4987 303.766 17.2904 303.926 17.0977 304.246V306.203C17.0977 306.477 17.1224 306.65 17.1719 306.723C17.224 306.796 17.319 306.841 17.457 306.859V307H15.6094V306.859C15.763 306.844 15.8724 306.794 15.9375 306.711C15.9818 306.654 16.0039 306.484 16.0039 306.203V304.141C16.0039 303.865 15.9779 303.693 15.9258 303.625C15.8763 303.557 15.7708 303.513 15.6094 303.492V303.348H17.0977ZM21.125 303.242C21.3047 303.242 21.457 303.306 21.582 303.434C21.7096 303.559 21.7734 303.711 21.7734 303.891C21.7734 304.07 21.7096 304.224 21.582 304.352C21.457 304.477 21.3047 304.539 21.125 304.539C20.9453 304.539 20.7917 304.477 20.6641 304.352C20.5391 304.224 20.4766 304.07 20.4766 303.891C20.4766 303.711 20.5391 303.559 20.6641 303.434C20.7917 303.306 20.9453 303.242 21.125 303.242ZM21.1211 305.797C21.3034 305.797 21.457 305.861 21.582 305.988C21.7096 306.116 21.7734 306.27 21.7734 306.449C21.7734 306.629 21.7096 306.783 21.582 306.91C21.4544 307.035 21.3008 307.098 21.1211 307.098C20.9414 307.098 20.7878 307.035 20.6602 306.91C20.5352 306.783 20.4727 306.629 20.4727 306.449C20.4727 306.27 20.5352 306.116 20.6602 305.988C20.7878 305.861 20.9414 305.797 21.1211 305.797Z" fill="#010101"/>
<line x1="1" y1="330.75" x2="363.006" y2="330.75" stroke="black" stroke-opacity="0.5" stroke-width="0.5"/>
<line x1="-4" y1="292.75" x2="365.001" y2="292.75" stroke="black" stroke-opacity="0.5" stroke-width="0.5" stroke-dasharray="5 5"/>
<line x1="1" y1="255.75" x2="366" y2="255.75" stroke="black" stroke-opacity="0.5" stroke-width="0.5"/>
<line x1="-3" y1="371.75" x2="359.001" y2="371.75" stroke="black" stroke-opacity="0.5" stroke-width="0.5"/>
<line x1="-0.000686646" y1="416.25" x2="362.001" y2="416.25" stroke="black" stroke-opacity="0.5" stroke-width="0.5"/>
<path d="M7.99219 425.703L10.6055 428.988V426.711C10.6055 426.393 10.5599 426.178 10.4688 426.066C10.3438 425.915 10.1341 425.842 9.83984 425.848V425.703H11.5898V425.848C11.3659 425.876 11.2148 425.914 11.1367 425.961C11.0612 426.005 11.0013 426.079 10.957 426.184C10.9154 426.285 10.8945 426.461 10.8945 426.711V431.121H10.7617L7.17969 426.711V430.078C7.17969 430.383 7.2487 430.589 7.38672 430.695C7.52734 430.802 7.6875 430.855 7.86719 430.855H7.99219V431H6.11328V430.855C6.40495 430.853 6.60807 430.793 6.72266 430.676C6.83724 430.559 6.89453 430.359 6.89453 430.078V426.34L6.78125 426.199C6.66927 426.059 6.57031 425.966 6.48438 425.922C6.39844 425.878 6.27474 425.853 6.11328 425.848V425.703H7.99219ZM13.7734 427.238C14.0911 427.238 14.3867 427.32 14.6602 427.484C14.9336 427.648 15.1406 427.882 15.2812 428.184C15.4245 428.486 15.4961 428.816 15.4961 429.176C15.4961 429.694 15.3646 430.128 15.1016 430.477C14.7839 430.898 14.3451 431.109 13.7852 431.109C13.2357 431.109 12.8125 430.917 12.5156 430.531C12.2188 430.146 12.0703 429.699 12.0703 429.191C12.0703 428.668 12.2214 428.212 12.5234 427.824C12.8281 427.434 13.2448 427.238 13.7734 427.238ZM13.7891 427.516C13.6562 427.516 13.5417 427.566 13.4453 427.668C13.3516 427.767 13.2891 427.965 13.2578 428.262C13.2292 428.556 13.2148 428.966 13.2148 429.492C13.2148 429.771 13.2331 430.031 13.2695 430.273C13.2982 430.458 13.3594 430.599 13.4531 430.695C13.5469 430.792 13.6536 430.84 13.7734 430.84C13.8906 430.84 13.9883 430.807 14.0664 430.742C14.168 430.654 14.2357 430.53 14.2695 430.371C14.3216 430.124 14.3477 429.624 14.3477 428.871C14.3477 428.428 14.3229 428.125 14.2734 427.961C14.224 427.794 14.151 427.673 14.0547 427.598C13.987 427.543 13.8984 427.516 13.7891 427.516ZM14.2305 425.426L15.0234 426.918H14.7227L13.793 426.113L12.8359 426.895H12.5156L13.3477 425.426H14.2305ZM13.7578 431.398C13.9401 431.398 14.0938 431.461 14.2188 431.586C14.3464 431.714 14.4102 431.868 14.4102 432.051C14.4102 432.23 14.3464 432.383 14.2188 432.508C14.0911 432.635 13.9375 432.699 13.7578 432.699C13.5781 432.699 13.4245 432.635 13.2969 432.508C13.1719 432.383 13.1094 432.23 13.1094 432.051C13.1094 431.871 13.1719 431.717 13.2969 431.59C13.4245 431.462 13.5781 431.398 13.7578 431.398ZM16.9297 425.578C17.099 425.578 17.2422 425.638 17.3594 425.758C17.4766 425.875 17.5352 426.017 17.5352 426.184C17.5352 426.35 17.4753 426.492 17.3555 426.609C17.2383 426.727 17.0964 426.785 16.9297 426.785C16.763 426.785 16.6211 426.727 16.5039 426.609C16.3867 426.492 16.3281 426.35 16.3281 426.184C16.3281 426.017 16.3867 425.875 16.5039 425.758C16.6211 425.638 16.763 425.578 16.9297 425.578ZM17.4766 427.348V430.242C17.4766 430.5 17.5065 430.665 17.5664 430.738C17.6263 430.809 17.7435 430.849 17.918 430.859V431H15.9453V430.859C16.1068 430.854 16.2266 430.807 16.3047 430.719C16.3568 430.659 16.3828 430.5 16.3828 430.242V428.109C16.3828 427.852 16.3529 427.688 16.293 427.617C16.2331 427.544 16.1172 427.503 15.9453 427.492V427.348H17.4766ZM23.8281 425.703V429.906C23.8281 430.19 23.8359 430.358 23.8516 430.41C23.8724 430.496 23.9115 430.56 23.9688 430.602C24.0286 430.643 24.1315 430.669 24.2773 430.68V430.809L22.7344 431.109V430.531C22.5495 430.755 22.3841 430.908 22.2383 430.988C22.0951 431.069 21.9323 431.109 21.75 431.109C21.2839 431.109 20.9154 430.901 20.6445 430.484C20.4258 430.146 20.3164 429.73 20.3164 429.238C20.3164 428.845 20.3841 428.493 20.5195 428.184C20.6549 427.871 20.8398 427.635 21.0742 427.477C21.3112 427.318 21.5651 427.238 21.8359 427.238C22.0104 427.238 22.1654 427.272 22.3008 427.34C22.4362 427.408 22.5807 427.526 22.7344 427.695V426.594C22.7344 426.315 22.7227 426.147 22.6992 426.09C22.668 426.014 22.6211 425.958 22.5586 425.922C22.4961 425.885 22.3789 425.867 22.207 425.867V425.703H23.8281ZM22.7344 428.18C22.5417 427.81 22.306 427.625 22.0273 427.625C21.931 427.625 21.8516 427.651 21.7891 427.703C21.6927 427.784 21.6133 427.926 21.5508 428.129C21.4909 428.332 21.4609 428.643 21.4609 429.062C21.4609 429.523 21.4948 429.865 21.5625 430.086C21.6302 430.307 21.7227 430.467 21.8398 430.566C21.8997 430.616 21.9818 430.641 22.0859 430.641C22.3151 430.641 22.5312 430.461 22.7344 430.102V428.18ZM28.2578 427.348V430.207C28.2578 430.486 28.2839 430.66 28.3359 430.73C28.388 430.798 28.4935 430.841 28.6523 430.859V431H27.1641V430.512C26.9896 430.72 26.8151 430.872 26.6406 430.969C26.4661 431.062 26.2708 431.109 26.0547 431.109C25.849 431.109 25.6654 431.047 25.5039 430.922C25.3451 430.794 25.2383 430.646 25.1836 430.477C25.1289 430.307 25.1016 430.012 25.1016 429.59V428.141C25.1016 427.865 25.0755 427.693 25.0234 427.625C24.974 427.557 24.8685 427.513 24.707 427.492V427.348H26.1953V429.844C26.1953 430.104 26.207 430.272 26.2305 430.348C26.2565 430.423 26.2956 430.48 26.3477 430.52C26.4023 430.559 26.4648 430.578 26.5352 430.578C26.6289 430.578 26.7135 430.553 26.7891 430.504C26.8932 430.436 27.0182 430.299 27.1641 430.094V428.141C27.1641 427.865 27.138 427.693 27.0859 427.625C27.0365 427.557 26.931 427.513 26.7695 427.492V427.348H28.2578ZM30.6758 427.348V427.82C30.8633 427.617 31.043 427.47 31.2148 427.379C31.3867 427.285 31.5716 427.238 31.7695 427.238C32.0065 427.238 32.2031 427.305 32.3594 427.438C32.5156 427.568 32.6198 427.73 32.6719 427.926C32.7135 428.074 32.7344 428.359 32.7344 428.781V430.203C32.7344 430.484 32.7591 430.66 32.8086 430.73C32.8607 430.798 32.9674 430.841 33.1289 430.859V431H31.2812V430.859C31.4193 430.841 31.5182 430.784 31.5781 430.688C31.6198 430.622 31.6406 430.461 31.6406 430.203V428.578C31.6406 428.279 31.6289 428.09 31.6055 428.012C31.582 427.934 31.5417 427.874 31.4844 427.832C31.4297 427.788 31.3685 427.766 31.3008 427.766C31.0768 427.766 30.8685 427.926 30.6758 428.246V430.203C30.6758 430.477 30.7005 430.65 30.75 430.723C30.8021 430.796 30.8971 430.841 31.0352 430.859V431H29.1875V430.859C29.3411 430.844 29.4505 430.794 29.5156 430.711C29.5599 430.654 29.582 430.484 29.582 430.203V428.141C29.582 427.865 29.556 427.693 29.5039 427.625C29.4544 427.557 29.349 427.513 29.1875 427.492V427.348H30.6758ZM35.9805 427.391H37.2109V427.82H36.5117C36.6393 427.948 36.7279 428.064 36.7773 428.168C36.8398 428.309 36.8711 428.456 36.8711 428.609C36.8711 428.87 36.7982 429.096 36.6523 429.289C36.5091 429.479 36.3125 429.629 36.0625 429.738C35.8151 429.845 35.5951 429.898 35.4023 429.898C35.3867 429.898 35.2305 429.892 34.9336 429.879C34.8164 429.879 34.7174 429.918 34.6367 429.996C34.5586 430.072 34.5195 430.163 34.5195 430.27C34.5195 430.363 34.5547 430.44 34.625 430.5C34.6979 430.56 34.8151 430.59 34.9766 430.59L35.6523 430.582C36.1992 430.582 36.5755 430.642 36.7812 430.762C37.0755 430.928 37.2227 431.185 37.2227 431.531C37.2227 431.753 37.1549 431.953 37.0195 432.133C36.8841 432.315 36.7057 432.449 36.4844 432.535C36.1484 432.663 35.7617 432.727 35.3242 432.727C34.9961 432.727 34.6966 432.694 34.4258 432.629C34.1549 432.566 33.9609 432.478 33.8438 432.363C33.7266 432.251 33.668 432.133 33.668 432.008C33.668 431.888 33.7122 431.78 33.8008 431.684C33.8919 431.59 34.0599 431.51 34.3047 431.445C33.9661 431.279 33.7969 431.047 33.7969 430.75C33.7969 430.57 33.8659 430.396 34.0039 430.227C34.1419 430.057 34.3607 429.91 34.6602 429.785C34.3112 429.658 34.0586 429.49 33.9023 429.281C33.7461 429.073 33.668 428.832 33.668 428.559C33.668 428.202 33.8138 427.893 34.1055 427.633C34.3971 427.37 34.7721 427.238 35.2305 427.238C35.4727 427.238 35.7227 427.289 35.9805 427.391ZM35.3047 427.48C35.1536 427.48 35.026 427.557 34.9219 427.711C34.8177 427.862 34.7656 428.177 34.7656 428.656C34.7656 429.044 34.8164 429.311 34.918 429.457C35.0221 429.6 35.1445 429.672 35.2852 429.672C35.4414 429.672 35.5716 429.6 35.6758 429.457C35.7799 429.314 35.832 429.035 35.832 428.621C35.832 428.155 35.7734 427.837 35.6562 427.668C35.5729 427.543 35.4557 427.48 35.3047 427.48ZM35.0742 431.539C34.8086 431.539 34.6328 431.561 34.5469 431.605C34.3984 431.686 34.3242 431.796 34.3242 431.934C34.3242 432.066 34.401 432.186 34.5547 432.293C34.7083 432.402 34.9974 432.457 35.4219 432.457C35.7839 432.457 36.0677 432.409 36.2734 432.312C36.4818 432.216 36.5859 432.081 36.5859 431.906C36.5859 431.841 36.5664 431.786 36.5273 431.742C36.457 431.664 36.3503 431.611 36.207 431.582C36.0664 431.553 35.6888 431.539 35.0742 431.539ZM38.7031 427.242C38.8828 427.242 39.0352 427.306 39.1602 427.434C39.2878 427.559 39.3516 427.711 39.3516 427.891C39.3516 428.07 39.2878 428.224 39.1602 428.352C39.0352 428.477 38.8828 428.539 38.7031 428.539C38.5234 428.539 38.3698 428.477 38.2422 428.352C38.1172 428.224 38.0547 428.07 38.0547 427.891C38.0547 427.711 38.1172 427.559 38.2422 427.434C38.3698 427.306 38.5234 427.242 38.7031 427.242ZM38.6992 429.797C38.8815 429.797 39.0352 429.861 39.1602 429.988C39.2878 430.116 39.3516 430.27 39.3516 430.449C39.3516 430.629 39.2878 430.783 39.1602 430.91C39.0326 431.035 38.8789 431.098 38.6992 431.098C38.5195 431.098 38.3659 431.035 38.2383 430.91C38.1133 430.783 38.0508 430.629 38.0508 430.449C38.0508 430.27 38.1133 430.116 38.2383 429.988C38.3659 429.861 38.5195 429.797 38.6992 429.797Z" fill="#010101"/>
<path d="M11.0469 381.703L11.0469 383.137L10.9063 383.137C10.8229 382.806 10.7305 382.569 10.6289 382.426C10.5273 382.28 10.388 382.164 10.2109 382.078C10.112 382.031 9.9388 382.008 9.69141 382.008L9.29688 382.008L9.29688 386.094C9.29688 386.365 9.3112 386.534 9.33984 386.602C9.37109 386.669 9.42969 386.729 9.51563 386.781C9.60417 386.831 9.72396 386.855 9.875 386.855L10.0508 386.855L10.0508 387L7.27734 387L7.27734 386.855L7.45313 386.855C7.60677 386.855 7.73047 386.828 7.82422 386.773C7.89193 386.737 7.94531 386.674 7.98438 386.586C8.01302 386.523 8.02734 386.359 8.02734 386.094L8.02734 382.008L7.64453 382.008C7.28776 382.008 7.02865 382.083 6.86719 382.234C6.64063 382.445 6.4974 382.746 6.4375 383.137L6.28906 383.137L6.28906 381.703L11.0469 381.703ZM12.3359 381.578C12.5052 381.578 12.6484 381.638 12.7656 381.758C12.8828 381.875 12.9414 382.017 12.9414 382.184C12.9414 382.35 12.8815 382.492 12.7617 382.609C12.6445 382.727 12.5026 382.785 12.3359 382.785C12.1693 382.785 12.0273 382.727 11.9102 382.609C11.793 382.492 11.7344 382.35 11.7344 382.184C11.7344 382.017 11.793 381.875 11.9102 381.758C12.0273 381.638 12.1693 381.578 12.3359 381.578ZM12.8828 383.348L12.8828 386.242C12.8828 386.5 12.9128 386.665 12.9727 386.738C13.0326 386.809 13.1497 386.849 13.3242 386.859L13.3242 387L11.3516 387L11.3516 386.859C11.513 386.854 11.6328 386.807 11.7109 386.719C11.763 386.659 11.7891 386.5 11.7891 386.242L11.7891 384.109C11.7891 383.852 11.7591 383.688 11.6992 383.617C11.6393 383.544 11.5234 383.503 11.3516 383.492L11.3516 383.348L12.8828 383.348ZM16.7773 385.043L14.7734 385.043C14.7969 385.527 14.9258 385.91 15.1602 386.191C15.3398 386.408 15.556 386.516 15.8086 386.516C15.9648 386.516 16.1068 386.473 16.2344 386.387C16.362 386.298 16.4987 386.141 16.6445 385.914L16.7773 386C16.5794 386.404 16.3607 386.69 16.1211 386.859C15.8815 387.026 15.6042 387.109 15.2891 387.109C14.7474 387.109 14.3372 386.901 14.0586 386.484C13.8346 386.148 13.7227 385.732 13.7227 385.234C13.7227 384.625 13.8867 384.141 14.2148 383.781C14.5456 383.419 14.9323 383.238 15.375 383.238C15.7448 383.238 16.0651 383.391 16.3359 383.695C16.6094 383.997 16.7565 384.447 16.7773 385.043ZM15.8164 384.781C15.8164 384.362 15.793 384.074 15.7461 383.918C15.7018 383.762 15.6315 383.643 15.5352 383.563C15.4805 383.516 15.4076 383.492 15.3164 383.492C15.181 383.492 15.0703 383.559 14.9844 383.691C14.8307 383.923 14.7539 384.241 14.7539 384.645L14.7539 384.781L15.8164 384.781ZM15.8125 381.426L16.6055 382.918L16.3047 382.918L15.375 382.113L14.418 382.895L14.0977 382.895L14.9297 381.426L15.8125 381.426ZM14.1992 379.871L15.375 379.871L15.7891 381.18L15.457 381.18L14.1992 379.871ZM18.7305 383.348L18.7305 383.82C18.918 383.617 19.0977 383.47 19.2695 383.379C19.4414 383.285 19.6263 383.238 19.8242 383.238C20.0612 383.238 20.2578 383.305 20.4141 383.438C20.5703 383.568 20.6745 383.73 20.7266 383.926C20.7682 384.074 20.7891 384.359 20.7891 384.781L20.7891 386.203C20.7891 386.484 20.8138 386.66 20.8633 386.73C20.9154 386.798 21.0221 386.841 21.1836 386.859L21.1836 387L19.3359 387L19.3359 386.859C19.474 386.841 19.5729 386.784 19.6328 386.688C19.6745 386.622 19.6953 386.461 19.6953 386.203L19.6953 384.578C19.6953 384.279 19.6836 384.09 19.6602 384.012C19.6367 383.934 19.5964 383.874 19.5391 383.832C19.4844 383.788 19.4232 383.766 19.3555 383.766C19.1315 383.766 18.9232 383.926 18.7305 384.246L18.7305 386.203C18.7305 386.477 18.7552 386.65 18.8047 386.723C18.8568 386.796 18.9518 386.841 19.0898 386.859L19.0898 387L17.2422 387L17.2422 386.859C17.3958 386.844 17.5052 386.794 17.5703 386.711C17.6146 386.654 17.6367 386.484 17.6367 386.203L17.6367 384.141C17.6367 383.865 17.6107 383.693 17.5586 383.625C17.5091 383.557 17.4036 383.513 17.2422 383.492L17.2422 383.348L18.7305 383.348ZM25.1406 382.012L25.1406 383.348L26.0078 383.348L26.0078 383.734L25.1406 383.734L25.1406 385.988C25.1406 386.199 25.1497 386.336 25.168 386.398C25.1888 386.458 25.224 386.508 25.2734 386.547C25.3229 386.583 25.3685 386.602 25.4102 386.602C25.5794 386.602 25.7396 386.473 25.8906 386.215L26.0078 386.301C25.7969 386.801 25.4544 387.051 24.9805 387.051C24.7487 387.051 24.5521 386.987 24.3906 386.859C24.2318 386.729 24.1302 386.585 24.0859 386.426C24.0599 386.337 24.0469 386.098 24.0469 385.707L24.0469 383.734L23.5703 383.734L23.5703 383.598C23.8984 383.366 24.1771 383.122 24.4063 382.867C24.638 382.612 24.8398 382.327 25.0117 382.012L25.1406 382.012ZM27.8477 381.703L27.8477 383.816C28.0482 383.605 28.2318 383.457 28.3984 383.371C28.5651 383.283 28.7383 383.238 28.918 383.238C29.1471 383.238 29.3424 383.303 29.5039 383.434C29.668 383.564 29.776 383.717 29.8281 383.895C29.8828 384.069 29.9102 384.365 29.9102 384.781L29.9102 386.207C29.9102 386.486 29.9362 386.66 29.9883 386.73C30.0404 386.798 30.1458 386.841 30.3047 386.859L30.3047 387L28.4531 387L28.4531 386.859C28.5833 386.841 28.681 386.789 28.7461 386.703C28.793 386.635 28.8164 386.47 28.8164 386.207L28.8164 384.578C28.8164 384.276 28.8047 384.087 28.7813 384.012C28.7578 383.934 28.7174 383.874 28.6602 383.832C28.6055 383.788 28.543 383.766 28.4727 383.766C28.3685 383.766 28.2669 383.802 28.168 383.875C28.069 383.945 27.9622 384.07 27.8477 384.25L27.8477 386.207C27.8477 386.467 27.8672 386.63 27.9063 386.695C27.9557 386.784 28.0573 386.839 28.2109 386.859L28.2109 387L26.3594 387L26.3594 386.859C26.513 386.844 26.6224 386.794 26.6875 386.711C26.7318 386.654 26.7539 386.486 26.7539 386.207L26.7539 382.496C26.7539 382.22 26.7279 382.048 26.6758 381.98C26.6263 381.913 26.5208 381.868 26.3594 381.848L26.3594 381.703L27.8477 381.703ZM34.3359 383.348L34.3359 386.207C34.3359 386.486 34.362 386.66 34.4141 386.73C34.4661 386.798 34.5716 386.841 34.7305 386.859L34.7305 387L33.2422 387L33.2422 386.512C33.0677 386.72 32.8932 386.872 32.7188 386.969C32.5443 387.063 32.349 387.109 32.1328 387.109C31.9271 387.109 31.7435 387.047 31.582 386.922C31.4232 386.794 31.3164 386.646 31.2617 386.477C31.207 386.307 31.1797 386.012 31.1797 385.59L31.1797 384.141C31.1797 383.865 31.1536 383.693 31.1016 383.625C31.0521 383.557 30.9466 383.513 30.7852 383.492L30.7852 383.348L32.2734 383.348L32.2734 385.844C32.2734 386.104 32.2852 386.272 32.3086 386.348C32.3346 386.423 32.3737 386.48 32.4258 386.52C32.4805 386.559 32.543 386.578 32.6133 386.578C32.707 386.578 32.7917 386.553 32.8672 386.504C32.9714 386.436 33.0964 386.299 33.2422 386.094L33.2422 384.141C33.2422 383.865 33.2161 383.693 33.1641 383.625C33.1146 383.557 33.0091 383.513 32.8477 383.492L32.8477 383.348L34.3359 383.348ZM38.7539 381.703L38.7539 383.816C38.9544 383.605 39.138 383.457 39.3047 383.371C39.4714 383.283 39.6445 383.238 39.8242 383.238C40.0534 383.238 40.2487 383.303 40.4102 383.434C40.5742 383.564 40.6823 383.717 40.7344 383.895C40.7891 384.069 40.8164 384.365 40.8164 384.781L40.8164 386.207C40.8164 386.486 40.8424 386.66 40.8945 386.73C40.9466 386.798 41.0521 386.841 41.2109 386.859L41.2109 387L39.3594 387L39.3594 386.859C39.4896 386.841 39.5872 386.789 39.6523 386.703C39.6992 386.635 39.7227 386.47 39.7227 386.207L39.7227 384.578C39.7227 384.276 39.7109 384.087 39.6875 384.012C39.6641 383.934 39.6237 383.874 39.5664 383.832C39.5117 383.788 39.4492 383.766 39.3789 383.766C39.2747 383.766 39.1732 383.802 39.0742 383.875C38.9753 383.945 38.8685 384.07 38.7539 384.25L38.7539 386.207C38.7539 386.467 38.7734 386.63 38.8125 386.695C38.862 386.784 38.9635 386.839 39.1172 386.859L39.1172 387L37.2656 387L37.2656 386.859C37.4193 386.844 37.5286 386.794 37.5938 386.711C37.638 386.654 37.6602 386.486 37.6602 386.207L37.6602 382.496C37.6602 382.22 37.6341 382.048 37.582 381.98C37.5326 381.913 37.4271 381.868 37.2656 381.848L37.2656 381.703L38.7539 381.703ZM43.4375 383.238C43.7552 383.238 44.0508 383.32 44.3242 383.484C44.5977 383.648 44.8047 383.882 44.9453 384.184C45.0885 384.486 45.1602 384.816 45.1602 385.176C45.1602 385.694 45.0286 386.128 44.7656 386.477C44.4479 386.898 44.0091 387.109 43.4492 387.109C42.8997 387.109 42.4766 386.917 42.1797 386.531C41.8828 386.146 41.7344 385.699 41.7344 385.191C41.7344 384.668 41.8854 384.212 42.1875 383.824C42.4922 383.434 42.9089 383.238 43.4375 383.238ZM43.4531 383.516C43.3203 383.516 43.2057 383.566 43.1094 383.668C43.0156 383.767 42.9531 383.965 42.9219 384.262C42.8932 384.556 42.8789 384.966 42.8789 385.492C42.8789 385.771 42.8971 386.031 42.9336 386.273C42.9622 386.458 43.0234 386.599 43.1172 386.695C43.2109 386.792 43.3177 386.84 43.4375 386.84C43.5547 386.84 43.6523 386.807 43.7305 386.742C43.832 386.654 43.8997 386.53 43.9336 386.371C43.9857 386.124 44.0117 385.624 44.0117 384.871C44.0117 384.428 43.987 384.125 43.9375 383.961C43.888 383.794 43.8151 383.673 43.7188 383.598C43.651 383.543 43.5625 383.516 43.4531 383.516ZM43.8945 381.426L44.6875 382.918L44.3867 382.918L43.457 382.113L42.5 382.895L42.1797 382.895L43.0117 381.426L43.8945 381.426ZM43.4219 387.398C43.6042 387.398 43.7578 387.461 43.8828 387.586C44.0104 387.714 44.0742 387.868 44.0742 388.051C44.0742 388.23 44.0104 388.383 43.8828 388.508C43.7552 388.635 43.6016 388.699 43.4219 388.699C43.2422 388.699 43.0885 388.635 42.9609 388.508C42.8359 388.383 42.7734 388.23 42.7734 388.051C42.7734 387.871 42.8359 387.717 42.9609 387.59C43.0885 387.462 43.2422 387.398 43.4219 387.398ZM46.7813 383.242C46.9609 383.242 47.1133 383.306 47.2383 383.434C47.3659 383.559 47.4297 383.711 47.4297 383.891C47.4297 384.07 47.3659 384.224 47.2383 384.352C47.1133 384.477 46.9609 384.539 46.7813 384.539C46.6016 384.539 46.4479 384.477 46.3203 384.352C46.1953 384.224 46.1328 384.07 46.1328 383.891C46.1328 383.711 46.1953 383.559 46.3203 383.434C46.4479 383.306 46.6016 383.242 46.7813 383.242ZM46.7773 385.797C46.9596 385.797 47.1133 385.861 47.2383 385.988C47.3659 386.116 47.4297 386.27 47.4297 386.449C47.4297 386.629 47.3659 386.783 47.2383 386.91C47.1107 387.035 46.957 387.098 46.7773 387.098C46.5977 387.098 46.444 387.035 46.3164 386.91C46.1914 386.783 46.1289 386.629 46.1289 386.449C46.1289 386.27 46.1914 386.116 46.3164 385.988C46.444 385.861 46.5977 385.797 46.7773 385.797Z" fill="#010101"/>
<path d="M220.242 382.856V384.692H220.09C219.975 384.213 219.762 383.845 219.449 383.59C219.137 383.335 218.782 383.207 218.387 383.207C218.056 383.207 217.752 383.303 217.476 383.493C217.2 383.683 216.999 383.931 216.871 384.239C216.707 384.632 216.625 385.069 216.625 385.551C216.625 386.025 216.685 386.457 216.805 386.848C216.924 387.236 217.112 387.53 217.367 387.731C217.622 387.929 217.953 388.028 218.359 388.028C218.693 388.028 218.997 387.955 219.273 387.809C219.552 387.663 219.845 387.412 220.152 387.055V387.512C219.855 387.822 219.545 388.047 219.222 388.188C218.902 388.326 218.527 388.395 218.097 388.395C217.532 388.395 217.03 388.282 216.59 388.055C216.152 387.829 215.814 387.503 215.574 387.079C215.337 386.654 215.219 386.202 215.219 385.723C215.219 385.218 215.35 384.739 215.613 384.286C215.879 383.832 216.236 383.481 216.683 383.231C217.134 382.981 217.612 382.856 218.117 382.856C218.489 382.856 218.883 382.937 219.297 383.098C219.536 383.192 219.689 383.239 219.754 383.239C219.837 383.239 219.909 383.209 219.969 383.149C220.031 383.086 220.071 382.989 220.09 382.856H220.242ZM224.961 385.52C224.992 385.504 225.019 385.472 225.043 385.422C225.053 385.396 225.053 385.374 225.043 385.356C225.032 385.335 224.98 385.296 224.887 385.239C224.847 385.213 224.815 385.176 224.789 385.129C224.726 385.023 224.708 384.92 224.734 384.821C224.763 384.717 224.832 384.635 224.941 384.575C225.051 384.515 225.166 384.503 225.289 384.539C225.528 384.612 225.648 384.78 225.648 385.043C225.648 385.114 225.635 385.188 225.609 385.266C225.552 385.441 225.42 385.567 225.215 385.645C225.022 385.72 224.777 385.757 224.48 385.754V387.481C224.48 387.749 224.506 387.924 224.558 388.004C224.603 388.072 224.708 388.115 224.875 388.133V388.274H223.387V387.786C223.053 388.184 222.683 388.383 222.277 388.383C222.077 388.383 221.894 388.319 221.73 388.192C221.571 388.072 221.463 387.926 221.406 387.754C221.351 387.582 221.324 387.286 221.324 386.864V385.414C221.324 385.146 221.298 384.974 221.246 384.899C221.202 384.831 221.096 384.787 220.93 384.766V384.622H222.418V387.118C222.418 387.493 222.47 387.718 222.574 387.793C222.626 387.832 222.687 387.852 222.758 387.852C222.948 387.852 223.157 387.691 223.387 387.368V385.414C223.387 385.146 223.361 384.974 223.308 384.899C223.264 384.831 223.159 384.787 222.992 384.766V384.622H224.48V385.61C224.691 385.599 224.851 385.569 224.961 385.52ZM230.066 384.973C230.004 385.158 229.872 385.292 229.672 385.375C229.536 385.43 229.31 385.457 228.992 385.457C229.133 385.76 229.203 386.09 229.203 386.45C229.203 386.968 229.071 387.401 228.808 387.75C228.491 388.172 228.052 388.383 227.492 388.383C226.963 388.383 226.54 388.191 226.222 387.805C225.926 387.446 225.777 386.999 225.777 386.465C225.777 385.921 225.928 385.464 226.23 385.094C226.551 384.706 226.967 384.512 227.48 384.512C227.832 384.512 228.135 384.598 228.39 384.77C228.463 384.822 228.59 384.938 228.769 385.118C228.871 385.224 228.987 385.279 229.117 385.282C229.219 385.284 229.298 385.275 229.355 385.254C229.426 385.228 229.472 385.187 229.496 385.129C229.509 385.103 229.51 385.082 229.5 385.067C229.44 385.036 229.354 384.96 229.242 384.84C229.182 384.734 229.165 384.631 229.191 384.532C229.217 384.428 229.285 384.345 229.394 384.286C229.506 384.223 229.622 384.21 229.742 384.247C229.883 384.291 229.986 384.382 230.051 384.52C230.116 384.658 230.121 384.809 230.066 384.973ZM228.055 386.145C228.055 385.728 228.03 385.425 227.98 385.235C227.939 385.076 227.866 384.955 227.762 384.872C227.694 384.817 227.605 384.789 227.496 384.789C227.194 384.789 227.018 385.037 226.969 385.532C226.937 385.829 226.922 386.24 226.922 386.766C226.922 387.047 226.94 387.308 226.976 387.547C227.034 387.925 227.202 388.114 227.48 388.114C227.746 388.114 227.911 387.957 227.976 387.645C228.028 387.398 228.055 386.898 228.055 386.145ZM228.789 382.797L227.496 384.153H227.16L227.613 382.797H228.789ZM233.168 387.332L233.289 387.426C233.117 387.749 232.902 387.99 232.644 388.149C232.389 388.305 232.117 388.383 231.828 388.383C231.341 388.383 230.952 388.2 230.66 387.832C230.368 387.465 230.222 387.024 230.222 386.508C230.222 386.011 230.355 385.573 230.621 385.196C230.941 384.74 231.383 384.512 231.945 384.512C232.323 384.512 232.622 384.607 232.844 384.797C233.068 384.987 233.18 385.2 233.18 385.434C233.18 385.582 233.134 385.701 233.043 385.789C232.954 385.878 232.837 385.922 232.691 385.922C232.538 385.922 232.41 385.872 232.308 385.77C232.209 385.668 232.148 385.487 232.125 385.227C232.109 385.063 232.071 384.948 232.012 384.883C231.952 384.818 231.881 384.786 231.801 384.786C231.676 384.786 231.569 384.852 231.48 384.985C231.345 385.185 231.277 385.493 231.277 385.907C231.277 386.25 231.332 386.58 231.441 386.895C231.551 387.207 231.7 387.441 231.89 387.594C232.034 387.706 232.203 387.762 232.398 387.762C232.526 387.762 232.647 387.732 232.762 387.672C232.876 387.612 233.012 387.499 233.168 387.332ZM234.808 384.516C234.988 384.516 235.14 384.58 235.265 384.707C235.393 384.832 235.457 384.985 235.457 385.164C235.457 385.344 235.393 385.498 235.265 385.625C235.14 385.75 234.988 385.813 234.808 385.813C234.629 385.813 234.475 385.75 234.347 385.625C234.222 385.498 234.16 385.344 234.16 385.164C234.16 384.985 234.222 384.832 234.347 384.707C234.475 384.58 234.629 384.516 234.808 384.516ZM234.805 387.071C234.987 387.071 235.14 387.135 235.265 387.262C235.393 387.39 235.457 387.543 235.457 387.723C235.457 387.903 235.393 388.056 235.265 388.184C235.138 388.309 234.984 388.372 234.805 388.372C234.625 388.372 234.471 388.309 234.344 388.184C234.219 388.056 234.156 387.903 234.156 387.723C234.156 387.543 234.219 387.39 234.344 387.262C234.471 387.135 234.625 387.071 234.805 387.071Z" fill="#010101"/>
<line x1="247" y1="504.75" x2="361.522" y2="504.75" stroke="black" stroke-opacity="0.3" stroke-width="0.5" stroke-dasharray="5 5"/>
<line x1="247.25" y1="505" x2="247.25" y2="563.222" stroke="black" stroke-opacity="0.3" stroke-width="0.5" stroke-dasharray="5 5"/>
<path d="M282.645 511.111V512.718H282.511C282.411 512.298 282.224 511.977 281.951 511.754C281.677 511.53 281.368 511.419 281.021 511.419C280.732 511.419 280.466 511.502 280.225 511.668C279.983 511.835 279.807 512.052 279.695 512.321C279.551 512.665 279.48 513.048 279.48 513.469C279.48 513.884 279.532 514.262 279.637 514.604C279.742 514.944 279.906 515.201 280.129 515.377C280.352 515.55 280.642 515.636 280.997 515.636C281.289 515.636 281.556 515.573 281.797 515.445C282.041 515.317 282.297 515.098 282.566 514.785V515.185C282.306 515.456 282.035 515.654 281.753 515.777C281.472 515.897 281.144 515.958 280.768 515.958C280.274 515.958 279.834 515.859 279.449 515.66C279.066 515.462 278.77 515.177 278.56 514.806C278.353 514.434 278.249 514.039 278.249 513.62C278.249 513.178 278.364 512.759 278.594 512.362C278.827 511.966 279.139 511.658 279.531 511.439C279.925 511.22 280.343 511.111 280.785 511.111C281.111 511.111 281.455 511.182 281.818 511.323C282.027 511.405 282.161 511.446 282.218 511.446C282.29 511.446 282.353 511.42 282.405 511.367C282.46 511.313 282.496 511.227 282.511 511.111H282.645ZM284.572 511.217V513.066C284.748 512.882 284.909 512.752 285.054 512.676C285.2 512.599 285.352 512.56 285.509 512.56C285.71 512.56 285.88 512.617 286.022 512.731C286.165 512.845 286.26 512.98 286.305 513.135C286.353 513.287 286.377 513.546 286.377 513.91V515.158C286.377 515.402 286.4 515.554 286.446 515.616C286.491 515.675 286.583 515.713 286.722 515.729V515.852H285.102V515.729C285.216 515.713 285.302 515.667 285.359 515.592C285.4 515.533 285.42 515.388 285.42 515.158V513.733C285.42 513.468 285.41 513.303 285.389 513.237C285.369 513.169 285.334 513.116 285.283 513.08C285.236 513.041 285.181 513.022 285.119 513.022C285.028 513.022 284.939 513.054 284.853 513.117C284.766 513.179 284.673 513.288 284.572 513.446V515.158C284.572 515.386 284.59 515.528 284.624 515.585C284.667 515.663 284.756 515.711 284.89 515.729V515.852H283.27V515.729C283.405 515.715 283.5 515.672 283.557 515.599C283.596 515.549 283.615 515.402 283.615 515.158V511.911C283.615 511.669 283.593 511.519 283.547 511.46C283.504 511.4 283.412 511.362 283.27 511.343V511.217H284.572ZM290.67 513.442C290.697 513.428 290.721 513.4 290.742 513.357C290.751 513.334 290.751 513.315 290.742 513.299C290.733 513.28 290.687 513.246 290.605 513.196C290.571 513.173 290.543 513.141 290.52 513.1C290.465 513.007 290.449 512.917 290.472 512.83C290.497 512.739 290.557 512.667 290.653 512.615C290.749 512.563 290.85 512.552 290.957 512.584C291.167 512.648 291.272 512.795 291.272 513.025C291.272 513.087 291.26 513.152 291.238 513.22C291.187 513.373 291.072 513.483 290.892 513.551C290.724 513.618 290.509 513.649 290.25 513.647V515.158C290.25 515.393 290.273 515.545 290.318 515.616C290.357 515.675 290.449 515.713 290.595 515.729V515.852H289.293V515.425C289.001 515.773 288.677 515.947 288.322 515.947C288.147 515.947 287.987 515.892 287.843 515.78C287.704 515.675 287.61 515.548 287.56 515.397C287.512 515.247 287.488 514.987 287.488 514.618V513.35C287.488 513.115 287.465 512.965 287.42 512.899C287.381 512.839 287.289 512.801 287.143 512.782V512.656H288.445V514.84C288.445 515.168 288.491 515.365 288.582 515.431C288.627 515.466 288.681 515.483 288.742 515.483C288.909 515.483 289.092 515.341 289.293 515.059V513.35C289.293 513.115 289.27 512.965 289.224 512.899C289.186 512.839 289.093 512.801 288.947 512.782V512.656H290.25V513.521C290.434 513.512 290.574 513.485 290.67 513.442ZM289.785 511.169H289.966C289.968 511.215 289.969 511.253 289.969 511.285C289.969 511.536 289.899 511.738 289.758 511.89C289.616 512.043 289.445 512.119 289.245 512.119C289.097 512.119 288.91 512.066 288.684 511.959C288.461 511.852 288.312 511.798 288.237 511.798C288.168 511.798 288.111 511.821 288.066 511.866C288.02 511.912 287.988 511.994 287.97 512.113H287.772C287.763 511.816 287.83 511.584 287.973 511.415C288.119 511.247 288.298 511.162 288.51 511.162C288.578 511.162 288.635 511.169 288.681 511.183C288.745 511.201 288.854 511.247 289.009 511.32C289.244 511.427 289.411 511.48 289.511 511.48C289.562 511.48 289.609 511.46 289.655 511.419C289.701 511.378 289.744 511.294 289.785 511.169ZM294.416 511.217V514.266L295.158 513.538C295.311 513.39 295.405 513.283 295.442 513.217C295.48 513.15 295.5 513.087 295.5 513.025C295.5 512.964 295.475 512.912 295.425 512.871C295.374 512.83 295.276 512.801 295.131 512.782V512.656H296.563V512.782C296.426 512.789 296.306 512.822 296.204 512.882C296.101 512.939 295.901 513.113 295.602 513.405L295.254 513.746L296.006 514.847C296.309 515.294 296.489 515.544 296.546 515.599C296.623 515.676 296.721 515.72 296.84 515.729V515.852H295.189V515.729C295.262 515.729 295.314 515.715 295.346 515.688C295.38 515.66 295.397 515.631 295.397 515.599C295.397 515.546 295.349 515.45 295.254 515.308L294.621 514.382L294.416 514.584V515.158C294.416 515.402 294.439 515.554 294.485 515.616C294.53 515.675 294.624 515.713 294.765 515.729V515.852H293.114V515.729C293.248 515.715 293.344 515.672 293.401 515.599C293.44 515.549 293.459 515.402 293.459 515.158V511.911C293.459 511.669 293.436 511.519 293.391 511.46C293.348 511.4 293.255 511.362 293.114 511.343V511.217H294.416ZM298.48 515.982L297.448 513.613C297.293 513.255 297.178 513.035 297.103 512.953C297.03 512.871 296.941 512.814 296.836 512.782V512.656H298.535V512.782C298.423 512.787 298.345 512.809 298.299 512.847C298.253 512.886 298.231 512.933 298.231 512.988C298.231 513.074 298.288 513.245 298.402 513.5L298.948 514.751L299.321 513.784C299.455 513.44 299.523 513.201 299.523 513.066C299.523 512.982 299.494 512.915 299.437 512.864C299.383 512.814 299.285 512.787 299.143 512.782V512.656H300.213V512.782C300.108 512.794 300.023 512.835 299.957 512.906C299.891 512.974 299.78 513.21 299.625 513.613L298.713 515.982C298.482 516.574 298.312 516.939 298.2 517.075C298.043 517.267 297.846 517.363 297.609 517.363C297.419 517.363 297.266 517.308 297.147 517.198C297.031 517.091 296.973 516.961 296.973 516.809C296.973 516.677 297.013 516.567 297.093 516.481C297.175 516.394 297.275 516.351 297.393 516.351C297.507 516.351 297.598 516.387 297.667 516.46C297.737 516.533 297.774 516.646 297.776 516.799C297.778 516.885 297.789 516.941 297.807 516.966C297.825 516.991 297.851 517.004 297.885 517.004C297.94 517.004 297.998 516.971 298.06 516.905C298.151 516.809 298.258 516.59 298.381 516.248L298.48 515.982ZM299.769 511.06L298.637 512.246H298.343L298.74 511.06H299.769ZM303.57 512.656V513.07C303.734 512.892 303.891 512.763 304.041 512.683C304.192 512.601 304.353 512.56 304.527 512.56C304.734 512.56 304.906 512.618 305.043 512.735C305.179 512.849 305.271 512.991 305.316 513.162C305.353 513.292 305.371 513.541 305.371 513.91V515.155C305.371 515.401 305.392 515.554 305.436 515.616C305.481 515.675 305.575 515.713 305.716 515.729V515.852H304.099V515.729C304.22 515.713 304.307 515.663 304.359 515.578C304.396 515.521 304.414 515.38 304.414 515.155V513.733C304.414 513.471 304.404 513.305 304.383 513.237C304.363 513.169 304.327 513.116 304.277 513.08C304.229 513.041 304.176 513.022 304.116 513.022C303.92 513.022 303.738 513.162 303.57 513.442V515.155C303.57 515.394 303.591 515.545 303.634 515.609C303.68 515.673 303.763 515.713 303.884 515.729V515.852H302.267V515.729C302.402 515.715 302.497 515.672 302.554 515.599C302.593 515.549 302.613 515.401 302.613 515.155V513.35C302.613 513.108 302.59 512.958 302.544 512.899C302.501 512.839 302.409 512.801 302.267 512.782V512.656H303.57ZM308.211 512.694H309.288V513.07H308.676C308.788 513.181 308.865 513.283 308.908 513.374C308.963 513.497 308.99 513.626 308.99 513.76C308.99 513.988 308.927 514.186 308.799 514.355C308.674 514.521 308.502 514.652 308.283 514.748C308.066 514.841 307.874 514.888 307.705 514.888C307.692 514.888 307.555 514.882 307.295 514.871C307.193 514.871 307.106 514.905 307.035 514.973C306.967 515.039 306.933 515.119 306.933 515.213C306.933 515.295 306.964 515.362 307.025 515.414C307.089 515.467 307.191 515.493 307.333 515.493L307.924 515.486C308.403 515.486 308.732 515.538 308.912 515.643C309.169 515.789 309.298 516.014 309.298 516.317C309.298 516.51 309.239 516.686 309.12 516.843C309.002 517.003 308.846 517.12 308.652 517.195C308.358 517.307 308.02 517.363 307.637 517.363C307.35 517.363 307.088 517.334 306.851 517.277C306.614 517.222 306.444 517.145 306.342 517.045C306.239 516.947 306.188 516.843 306.188 516.734C306.188 516.629 306.226 516.534 306.304 516.45C306.384 516.368 306.531 516.298 306.745 516.241C306.449 516.096 306.301 515.893 306.301 515.633C306.301 515.476 306.361 515.323 306.482 515.175C306.602 515.027 306.794 514.898 307.056 514.789C306.751 514.677 306.53 514.53 306.393 514.348C306.256 514.166 306.188 513.955 306.188 513.716C306.188 513.403 306.315 513.133 306.571 512.906C306.826 512.675 307.154 512.56 307.555 512.56C307.767 512.56 307.986 512.605 308.211 512.694ZM307.62 512.772C307.488 512.772 307.376 512.839 307.285 512.974C307.194 513.106 307.148 513.382 307.148 513.801C307.148 514.141 307.193 514.374 307.281 514.502C307.373 514.627 307.48 514.69 307.603 514.69C307.739 514.69 307.853 514.627 307.945 514.502C308.036 514.376 308.081 514.133 308.081 513.77C308.081 513.362 308.03 513.084 307.927 512.936C307.855 512.827 307.752 512.772 307.62 512.772ZM307.418 516.323C307.186 516.323 307.032 516.343 306.957 516.382C306.827 516.452 306.762 516.548 306.762 516.669C306.762 516.785 306.829 516.89 306.964 516.983C307.098 517.079 307.351 517.127 307.722 517.127C308.039 517.127 308.287 517.085 308.468 517C308.65 516.916 308.741 516.797 308.741 516.645C308.741 516.588 308.724 516.54 308.69 516.501C308.628 516.433 308.535 516.386 308.409 516.361C308.286 516.336 307.956 516.323 307.418 516.323ZM313.167 513.442C313.195 513.428 313.218 513.4 313.239 513.357C313.248 513.334 313.248 513.315 313.239 513.299C313.23 513.28 313.184 513.246 313.102 513.196C313.068 513.173 313.04 513.141 313.017 513.1C312.962 513.007 312.946 512.917 312.969 512.83C312.994 512.739 313.054 512.667 313.15 512.615C313.246 512.563 313.347 512.552 313.454 512.584C313.664 512.648 313.769 512.795 313.769 513.025C313.769 513.087 313.757 513.152 313.735 513.22C313.684 513.373 313.569 513.483 313.389 513.551C313.221 513.618 313.007 513.649 312.747 513.647V515.158C312.747 515.393 312.77 515.545 312.815 515.616C312.854 515.675 312.946 515.713 313.092 515.729V515.852H311.79V515.425C311.498 515.773 311.175 515.947 310.819 515.947C310.644 515.947 310.484 515.892 310.341 515.78C310.202 515.675 310.107 515.548 310.057 515.397C310.009 515.247 309.985 514.987 309.985 514.618V513.35C309.985 513.115 309.962 512.965 309.917 512.899C309.878 512.839 309.786 512.801 309.64 512.782V512.656H310.942V514.84C310.942 515.168 310.988 515.365 311.079 515.431C311.124 515.466 311.178 515.483 311.239 515.483C311.406 515.483 311.589 515.341 311.79 515.059V513.35C311.79 513.115 311.767 512.965 311.721 512.899C311.683 512.839 311.59 512.801 311.445 512.782V512.656H312.747V513.521C312.931 513.512 313.072 513.485 313.167 513.442ZM317.634 512.964C317.58 513.125 317.465 513.243 317.289 513.316C317.171 513.364 316.973 513.387 316.695 513.387C316.818 513.652 316.879 513.941 316.879 514.256C316.879 514.709 316.764 515.088 316.534 515.394C316.256 515.763 315.872 515.947 315.382 515.947C314.919 515.947 314.549 515.779 314.271 515.442C314.011 515.127 313.882 514.736 313.882 514.269C313.882 513.793 314.014 513.393 314.278 513.07C314.558 512.73 314.923 512.56 315.372 512.56C315.679 512.56 315.945 512.635 316.168 512.786C316.232 512.831 316.343 512.933 316.5 513.09C316.589 513.183 316.69 513.231 316.804 513.234C316.893 513.236 316.962 513.228 317.012 513.21C317.074 513.187 317.115 513.15 317.135 513.1C317.147 513.078 317.148 513.059 317.139 513.046C317.086 513.018 317.011 512.952 316.913 512.847C316.861 512.754 316.846 512.664 316.869 512.577C316.892 512.486 316.951 512.414 317.047 512.362C317.145 512.307 317.246 512.296 317.351 512.328C317.474 512.367 317.564 512.446 317.621 512.567C317.678 512.688 317.682 512.82 317.634 512.964ZM315.874 513.989C315.874 513.624 315.853 513.359 315.809 513.193C315.773 513.054 315.709 512.948 315.618 512.875C315.559 512.827 315.481 512.803 315.385 512.803C315.121 512.803 314.967 513.019 314.924 513.452C314.897 513.712 314.883 514.072 314.883 514.532C314.883 514.779 314.899 515.006 314.931 515.216C314.981 515.546 315.128 515.712 315.372 515.712C315.604 515.712 315.749 515.575 315.806 515.301C315.851 515.085 315.874 514.648 315.874 513.989ZM314.336 511.06H315.365L315.761 512.246H315.471L314.336 511.06ZM318.509 511.108C318.658 511.108 318.783 511.16 318.885 511.265C318.988 511.367 319.039 511.492 319.039 511.637C319.039 511.783 318.987 511.907 318.882 512.01C318.78 512.113 318.655 512.164 318.509 512.164C318.364 512.164 318.239 512.113 318.137 512.01C318.034 511.907 317.983 511.783 317.983 511.637C317.983 511.492 318.034 511.367 318.137 511.265C318.239 511.16 318.364 511.108 318.509 511.108ZM318.988 512.656V515.189C318.988 515.414 319.014 515.559 319.067 515.623C319.119 515.684 319.222 515.72 319.374 515.729V515.852H317.648V515.729C317.789 515.724 317.894 515.683 317.963 515.606C318.008 515.553 318.031 515.414 318.031 515.189V513.322C318.031 513.097 318.005 512.953 317.952 512.892C317.9 512.828 317.799 512.792 317.648 512.782V512.656H318.988ZM322.744 512.656V513.07C322.908 512.892 323.066 512.763 323.216 512.683C323.366 512.601 323.528 512.56 323.701 512.56C323.909 512.56 324.081 512.618 324.218 512.735C324.354 512.849 324.445 512.991 324.491 513.162C324.527 513.292 324.546 513.541 324.546 513.91V515.155C324.546 515.401 324.567 515.554 324.611 515.616C324.656 515.675 324.75 515.713 324.891 515.729V515.852H323.274V515.729C323.395 515.713 323.482 515.663 323.534 515.578C323.57 515.521 323.589 515.38 323.589 515.155V513.733C323.589 513.471 323.578 513.305 323.558 513.237C323.537 513.169 323.502 513.116 323.452 513.08C323.404 513.041 323.35 513.022 323.291 513.022C323.095 513.022 322.913 513.162 322.744 513.442V515.155C322.744 515.394 322.766 515.545 322.809 515.609C322.855 515.673 322.938 515.713 323.059 515.729V515.852H321.442V515.729C321.577 515.715 321.672 515.672 321.729 515.599C321.768 515.549 321.787 515.401 321.787 515.155V513.35C321.787 513.108 321.765 512.958 321.719 512.899C321.676 512.839 321.583 512.801 321.442 512.782V512.656H322.744ZM326.641 511.217V513.066C326.816 512.882 326.977 512.752 327.123 512.676C327.269 512.599 327.42 512.56 327.577 512.56C327.778 512.56 327.949 512.617 328.09 512.731C328.234 512.845 328.328 512.98 328.374 513.135C328.422 513.287 328.446 513.546 328.446 513.91V515.158C328.446 515.402 328.468 515.554 328.514 515.616C328.559 515.675 328.652 515.713 328.791 515.729V515.852H327.171V515.729C327.285 515.713 327.37 515.667 327.427 515.592C327.468 515.533 327.489 515.388 327.489 515.158V513.733C327.489 513.468 327.478 513.303 327.458 513.237C327.437 513.169 327.402 513.116 327.352 513.08C327.304 513.041 327.249 513.022 327.188 513.022C327.097 513.022 327.008 513.054 326.921 513.117C326.835 513.179 326.741 513.288 326.641 513.446V515.158C326.641 515.386 326.658 515.528 326.692 515.585C326.735 515.663 326.824 515.711 326.959 515.729V515.852H325.339V515.729C325.473 515.715 325.569 515.672 325.626 515.599C325.664 515.549 325.684 515.402 325.684 515.158V511.911C325.684 511.669 325.661 511.519 325.615 511.46C325.572 511.4 325.48 511.362 325.339 511.343V511.217H326.641ZM330.995 515.38C330.606 515.724 330.256 515.896 329.946 515.896C329.764 515.896 329.612 515.837 329.491 515.718C329.371 515.598 329.31 515.447 329.31 515.267C329.31 515.024 329.415 514.805 329.625 514.611C329.834 514.415 330.291 514.155 330.995 513.832V513.51C330.995 513.269 330.982 513.117 330.954 513.056C330.929 512.992 330.88 512.937 330.807 512.892C330.734 512.844 330.652 512.82 330.561 512.82C330.413 512.82 330.291 512.853 330.196 512.919C330.136 512.96 330.107 513.008 330.107 513.063C330.107 513.111 330.139 513.17 330.202 513.24C330.289 513.338 330.332 513.433 330.332 513.524C330.332 513.636 330.29 513.732 330.206 513.811C330.124 513.889 330.016 513.927 329.881 513.927C329.738 513.927 329.617 513.884 329.519 513.798C329.423 513.711 329.375 513.61 329.375 513.493C329.375 513.329 329.44 513.173 329.57 513.025C329.7 512.875 329.881 512.76 330.114 512.68C330.346 512.6 330.587 512.56 330.838 512.56C331.141 512.56 331.38 512.625 331.556 512.755C331.734 512.883 331.849 513.022 331.901 513.172C331.933 513.268 331.949 513.488 331.949 513.832V515.072C331.949 515.218 331.955 515.311 331.966 515.349C331.977 515.386 331.995 515.413 332.017 515.431C332.04 515.45 332.066 515.459 332.096 515.459C332.155 515.459 332.216 515.417 332.277 515.332L332.38 515.414C332.266 515.583 332.147 515.706 332.024 515.783C331.903 515.859 331.766 515.896 331.611 515.896C331.428 515.896 331.286 515.854 331.183 515.77C331.081 515.683 331.018 515.553 330.995 515.38ZM330.995 515.131V514.061C330.72 514.223 330.515 514.396 330.38 514.58C330.291 514.703 330.247 514.828 330.247 514.953C330.247 515.058 330.284 515.15 330.36 515.23C330.417 515.291 330.496 515.322 330.599 515.322C330.713 515.322 330.845 515.258 330.995 515.131ZM331.142 510.974L331.836 512.28H331.573L330.759 511.576L329.922 512.26H329.642L330.37 510.974H331.142ZM330.691 516.2C330.851 516.2 330.985 516.255 331.094 516.364C331.206 516.476 331.262 516.612 331.262 516.771C331.262 516.928 331.206 517.062 331.094 517.171C330.983 517.283 330.848 517.339 330.691 517.339C330.534 517.339 330.399 517.283 330.288 517.171C330.178 517.062 330.124 516.928 330.124 516.771C330.124 516.614 330.178 516.48 330.288 516.368C330.399 516.256 330.534 516.2 330.691 516.2ZM334.037 512.656V513.07C334.201 512.892 334.359 512.763 334.509 512.683C334.659 512.601 334.821 512.56 334.994 512.56C335.202 512.56 335.374 512.618 335.51 512.735C335.647 512.849 335.738 512.991 335.784 513.162C335.82 513.292 335.839 513.541 335.839 513.91V515.155C335.839 515.401 335.86 515.554 335.904 515.616C335.949 515.675 336.043 515.713 336.184 515.729V515.852H334.567V515.729C334.688 515.713 334.774 515.663 334.827 515.578C334.863 515.521 334.882 515.38 334.882 515.155V513.733C334.882 513.471 334.871 513.305 334.851 513.237C334.83 513.169 334.795 513.116 334.745 513.08C334.697 513.041 334.643 513.022 334.584 513.022C334.388 513.022 334.206 513.162 334.037 513.442V515.155C334.037 515.394 334.059 515.545 334.102 515.609C334.148 515.673 334.231 515.713 334.352 515.729V515.852H332.735V515.729C332.87 515.715 332.965 515.672 333.022 515.599C333.061 515.549 333.08 515.401 333.08 515.155V513.35C333.08 513.108 333.058 512.958 333.012 512.899C332.969 512.839 332.876 512.801 332.735 512.782V512.656H334.037Z" fill="black"/>
<path d="M8.9248 66.1515L7.66504 67.172C7.86361 67.1362 8.04753 67.1183 8.2168 67.1183C8.37956 67.1183 8.5293 67.128 8.66602 67.1476C8.80599 67.1671 9.10221 67.2273 9.55469 67.3282C10.0104 67.4324 10.4076 67.4845 10.7461 67.4845C11.1074 67.4845 11.4134 67.421 11.6641 67.2941C11.918 67.1704 12.1637 66.962 12.4014 66.6691L12.5625 66.7472C12.2272 67.2289 11.8317 67.5756 11.376 67.7872C10.9202 68.0021 10.4368 68.1095 9.92578 68.1095C9.64258 68.1095 9.25521 68.0541 8.76367 67.9435C8.01172 67.7775 7.486 67.6944 7.18652 67.6944C7.07259 67.6944 6.97982 67.7026 6.9082 67.7189C6.83659 67.7351 6.72917 67.7742 6.58594 67.836L6.47363 67.7042L8.47559 66.1222C7.8571 66.0375 7.38835 65.7657 7.06934 65.3067C6.75033 64.8478 6.59082 64.3579 6.59082 63.837C6.59082 63.1241 6.80566 62.3868 7.23535 61.6251C7.66829 60.8634 8.22005 60.2742 8.89062 59.8575C9.56445 59.4376 10.2253 59.2276 10.873 59.2276C11.3548 59.2276 11.765 59.3253 12.1035 59.5206C12.4453 59.7159 12.709 60.0008 12.8945 60.3751C13.0801 60.7462 13.1729 61.1271 13.1729 61.5177C13.1729 62.2664 12.9596 63.0248 12.5332 63.7931C12.1068 64.5613 11.5762 65.144 10.9414 65.5411C10.3099 65.935 9.6377 66.1385 8.9248 66.1515ZM10.7559 59.5401C10.4303 59.5401 10.1113 59.6215 9.79883 59.7843C9.48958 59.9438 9.18197 60.2075 8.87598 60.5753C8.56999 60.9399 8.29492 61.4184 8.05078 62.0108C7.75456 62.74 7.60645 63.4285 7.60645 64.0763C7.60645 64.5385 7.72526 64.9487 7.96289 65.3067C8.20052 65.6616 8.5651 65.839 9.05664 65.839C9.34961 65.839 9.63932 65.7657 9.92578 65.6192C10.2122 65.4728 10.5085 65.2237 10.8145 64.8722C11.2051 64.423 11.5322 63.8517 11.7959 63.1583C12.0596 62.465 12.1914 61.8204 12.1914 61.2247C12.1914 60.7853 12.0726 60.3946 11.835 60.0528C11.5973 59.711 11.2376 59.5401 10.7559 59.5401ZM17.9336 61.6983L17.084 64.6085C16.957 65.0414 16.8936 65.3149 16.8936 65.4288C16.8936 65.4874 16.9033 65.5314 16.9229 65.5607C16.9456 65.5867 16.9749 65.5997 17.0107 65.5997C17.0661 65.5997 17.1263 65.5753 17.1914 65.5265C17.2598 65.4744 17.429 65.2726 17.6992 64.921L17.8457 65.0333C17.5885 65.4402 17.3249 65.7397 17.0547 65.9317C16.8757 66.0554 16.7031 66.1173 16.5371 66.1173C16.4102 66.1173 16.3109 66.0815 16.2393 66.0099C16.1676 65.9383 16.1318 65.8455 16.1318 65.7316C16.1318 65.6209 16.153 65.4744 16.1953 65.2921C16.2474 65.0512 16.3955 64.5271 16.6396 63.7198C16.0863 64.628 15.6224 65.2547 15.248 65.5997C14.877 65.9448 14.5319 66.1173 14.2129 66.1173C14.0632 66.1173 13.9362 66.0652 13.832 65.961C13.7279 65.8569 13.6758 65.725 13.6758 65.5655C13.6758 65.3214 13.7474 64.947 13.8906 64.4425L14.3154 62.9337C14.4196 62.5724 14.4717 62.3478 14.4717 62.2599C14.4717 62.2208 14.457 62.1883 14.4277 62.1622C14.4017 62.1329 14.3724 62.1183 14.3398 62.1183C14.2715 62.1183 14.2031 62.1427 14.1348 62.1915C14.0664 62.2403 13.9118 62.421 13.6709 62.7335L13.5195 62.6261C13.7637 62.2485 14.0225 61.9702 14.2959 61.7911C14.5042 61.6511 14.6963 61.5812 14.8721 61.5812C14.9925 61.5812 15.0902 61.6202 15.165 61.6983C15.2432 61.7732 15.2822 61.8709 15.2822 61.9913C15.2822 62.1671 15.2171 62.4812 15.0869 62.9337L14.6279 64.5108C14.501 64.9405 14.4375 65.2123 14.4375 65.3263C14.4375 65.3881 14.457 65.4386 14.4961 65.4776C14.5384 65.5135 14.5938 65.5314 14.6621 65.5314C14.7695 65.5314 14.9095 65.4776 15.082 65.3702C15.2546 65.2628 15.484 65.0252 15.7705 64.6573C16.0602 64.2862 16.2979 63.9396 16.4834 63.6173C16.6722 63.2918 16.8724 62.7758 17.084 62.0694L17.1914 61.6983H17.9336ZM22.9189 61.5812L21.9668 64.8917L21.8594 65.336C21.8496 65.3784 21.8447 65.4142 21.8447 65.4435C21.8447 65.4955 21.861 65.5411 21.8936 65.5802C21.9196 65.6095 21.9521 65.6241 21.9912 65.6241C22.0335 65.6241 22.0889 65.5981 22.1572 65.546C22.2842 65.4516 22.4535 65.2563 22.665 64.9601L22.8311 65.0773C22.6064 65.4158 22.3753 65.6746 22.1377 65.8536C21.9001 66.0294 21.6803 66.1173 21.4785 66.1173C21.3385 66.1173 21.2327 66.0815 21.1611 66.0099C21.0928 65.9415 21.0586 65.8406 21.0586 65.7071C21.0586 65.5476 21.0944 65.3377 21.166 65.0773L21.2686 64.711C20.8421 65.2677 20.4499 65.6567 20.0918 65.878C19.8346 66.0375 19.5824 66.1173 19.335 66.1173C19.0973 66.1173 18.8923 66.0196 18.7197 65.8243C18.5472 65.6258 18.4609 65.3539 18.4609 65.0089C18.4609 64.4913 18.6156 63.9461 18.9248 63.3732C19.2373 62.797 19.6328 62.3364 20.1113 61.9913C20.4857 61.7179 20.8389 61.5812 21.1709 61.5812C21.3695 61.5812 21.5339 61.6332 21.6641 61.7374C21.7975 61.8416 21.8984 62.0141 21.9668 62.255L22.1426 61.6983L22.9189 61.5812ZM21.1807 61.8351C20.9723 61.8351 20.751 61.9327 20.5166 62.128C20.1846 62.4047 19.8883 62.8149 19.6279 63.3585C19.3708 63.9021 19.2422 64.3937 19.2422 64.8331C19.2422 65.0545 19.2975 65.2303 19.4082 65.3605C19.5189 65.4874 19.6458 65.5509 19.7891 65.5509C20.1439 65.5509 20.5296 65.2888 20.9463 64.7648C21.5029 64.0681 21.7812 63.3536 21.7812 62.6212C21.7812 62.3445 21.7275 62.1443 21.6201 62.0206C21.5127 61.8969 21.3662 61.8351 21.1807 61.8351ZM22.5479 59.2276L22.9141 60.7706H22.8115L21.9863 59.7843L20.4287 60.7706H20.2969L21.8154 59.2276H22.5479ZM19.999 66.586C20.139 66.586 20.2562 66.6332 20.3506 66.7276C20.4482 66.8253 20.4971 66.9425 20.4971 67.0792C20.4971 67.2159 20.4482 67.3315 20.3506 67.4259C20.2529 67.5235 20.1357 67.5724 19.999 67.5724C19.8623 67.5724 19.7451 67.5235 19.6475 67.4259C19.5531 67.3315 19.5059 67.2159 19.5059 67.0792C19.5059 66.9425 19.5531 66.8253 19.6475 66.7276C19.7451 66.6332 19.8623 66.586 19.999 66.586ZM25.4336 61.5812L24.7842 63.8028C25.3929 62.8946 25.8584 62.2973 26.1807 62.0108C26.5062 61.7244 26.8187 61.5812 27.1182 61.5812C27.2809 61.5812 27.4144 61.6349 27.5186 61.7423C27.626 61.8497 27.6797 61.9897 27.6797 62.1622C27.6797 62.3575 27.6325 62.6179 27.5381 62.9435L26.9424 64.9991C26.874 65.2368 26.8398 65.3816 26.8398 65.4337C26.8398 65.4793 26.8529 65.5183 26.8789 65.5509C26.9049 65.5802 26.9326 65.5948 26.9619 65.5948C27.001 65.5948 27.0482 65.5737 27.1035 65.5314C27.276 65.3946 27.4648 65.1863 27.6699 64.9064L27.8213 64.9991C27.5186 65.4321 27.2321 65.7413 26.9619 65.9269C26.7731 66.0538 26.6038 66.1173 26.4541 66.1173C26.3337 66.1173 26.2376 66.0799 26.166 66.005C26.0944 65.9334 26.0586 65.8357 26.0586 65.712C26.0586 65.5558 26.1139 65.2872 26.2246 64.9064L26.791 62.9435C26.8626 62.6993 26.8984 62.5089 26.8984 62.3722C26.8984 62.3071 26.8773 62.255 26.835 62.2159C26.7926 62.1736 26.7406 62.1525 26.6787 62.1525C26.5876 62.1525 26.4785 62.1915 26.3516 62.2696C26.1107 62.4161 25.86 62.6586 25.5996 62.9972C25.3392 63.3325 25.0641 63.7622 24.7744 64.2862C24.6214 64.5629 24.4945 64.8657 24.3936 65.1944L24.1494 66.0001H23.417L24.3057 62.9435C24.4098 62.5756 24.4619 62.3543 24.4619 62.2794C24.4619 62.2078 24.4326 62.1459 24.374 62.0939C24.3187 62.0385 24.2487 62.0108 24.1641 62.0108C24.125 62.0108 24.0566 62.0174 23.959 62.0304L23.7734 62.0597L23.7441 61.8839L25.4336 61.5812ZM32.04 59.0567L28.3193 66.1515H27.8896L31.6348 59.0567H32.04ZM33.4756 62.3331H36.5322L37.0156 60.6974C37.1068 60.3784 37.1523 60.131 37.1523 59.9552C37.1523 59.8705 37.1312 59.7989 37.0889 59.7403C37.0498 59.6785 36.988 59.6329 36.9033 59.6036C36.8187 59.5743 36.6527 59.5597 36.4053 59.5597L36.4541 59.379H39.1201L39.0615 59.5597C38.8369 59.5564 38.6693 59.5792 38.5586 59.628C38.4023 59.6964 38.2868 59.7843 38.2119 59.8917C38.1045 60.0447 37.9954 60.3133 37.8848 60.6974L36.7178 64.6964C36.6201 65.0284 36.5713 65.2661 36.5713 65.4093C36.5713 65.533 36.6136 65.6274 36.6982 65.6925C36.7861 65.7543 36.9928 65.7967 37.3184 65.8194L37.2646 66.0001H34.6865L34.7549 65.8194C35.0088 65.8129 35.1781 65.7901 35.2627 65.7511C35.3929 65.6925 35.4873 65.6176 35.5459 65.5265C35.6305 65.3995 35.7347 65.1228 35.8584 64.6964L36.4541 62.67H33.3828L32.7822 64.6964C32.6878 65.0219 32.6406 65.2595 32.6406 65.4093C32.6406 65.533 32.6829 65.6274 32.7676 65.6925C32.8522 65.7543 33.0573 65.7967 33.3828 65.8194L33.3438 66.0001H30.7461L30.8096 65.8194C31.0667 65.8129 31.2376 65.7901 31.3223 65.7511C31.4525 65.6925 31.5485 65.6176 31.6104 65.5265C31.695 65.393 31.7992 65.1163 31.9229 64.6964L33.0947 60.6974C33.1891 60.3719 33.2363 60.1245 33.2363 59.9552C33.2363 59.8705 33.2152 59.7989 33.1729 59.7403C33.1338 59.6785 33.0703 59.6329 32.9824 59.6036C32.8978 59.5743 32.7301 59.5597 32.4795 59.5597L32.5381 59.379H35.1504L35.0967 59.5597C34.8786 59.5564 34.7174 59.5792 34.6133 59.628C34.4603 59.6931 34.348 59.7794 34.2764 59.8868C34.1787 60.0301 34.0713 60.3002 33.9541 60.6974L33.4756 62.3331ZM42.9434 61.6983L42.0938 64.6085C41.9668 65.0414 41.9033 65.3149 41.9033 65.4288C41.9033 65.4874 41.9131 65.5314 41.9326 65.5607C41.9554 65.5867 41.9847 65.5997 42.0205 65.5997C42.0758 65.5997 42.1361 65.5753 42.2012 65.5265C42.2695 65.4744 42.4388 65.2726 42.709 64.921L42.8555 65.0333C42.5983 65.4402 42.3346 65.7397 42.0645 65.9317C41.8854 66.0554 41.7129 66.1173 41.5469 66.1173C41.4199 66.1173 41.3206 66.0815 41.249 66.0099C41.1774 65.9383 41.1416 65.8455 41.1416 65.7316C41.1416 65.6209 41.1628 65.4744 41.2051 65.2921C41.2572 65.0512 41.4053 64.5271 41.6494 63.7198C41.096 64.628 40.6322 65.2547 40.2578 65.5997C39.8867 65.9448 39.5417 66.1173 39.2227 66.1173C39.0729 66.1173 38.946 66.0652 38.8418 65.961C38.7376 65.8569 38.6855 65.725 38.6855 65.5655C38.6855 65.3214 38.7572 64.947 38.9004 64.4425L39.3252 62.9337C39.4294 62.5724 39.4814 62.3478 39.4814 62.2599C39.4814 62.2208 39.4668 62.1883 39.4375 62.1622C39.4115 62.1329 39.3822 62.1183 39.3496 62.1183C39.2812 62.1183 39.2129 62.1427 39.1445 62.1915C39.0762 62.2403 38.9215 62.421 38.6807 62.7335L38.5293 62.6261C38.7734 62.2485 39.0322 61.9702 39.3057 61.7911C39.514 61.6511 39.7061 61.5812 39.8818 61.5812C40.0023 61.5812 40.0999 61.6202 40.1748 61.6983C40.2529 61.7732 40.292 61.8709 40.292 61.9913C40.292 62.1671 40.2269 62.4812 40.0967 62.9337L39.6377 64.5108C39.5107 64.9405 39.4473 65.2123 39.4473 65.3263C39.4473 65.3881 39.4668 65.4386 39.5059 65.4776C39.5482 65.5135 39.6035 65.5314 39.6719 65.5314C39.7793 65.5314 39.9193 65.4776 40.0918 65.3702C40.2643 65.2628 40.4938 65.0252 40.7803 64.6573C41.07 64.2862 41.3076 63.9396 41.4932 63.6173C41.682 63.2918 41.8822 62.7758 42.0938 62.0694L42.2012 61.6983H42.9434ZM44.833 61.5812C44.9437 61.77 45.0202 61.9474 45.0625 62.1134C45.1048 62.2761 45.1471 62.5984 45.1895 63.0802L45.4043 65.4825C45.5996 65.2482 45.8828 64.8771 46.2539 64.3692C46.4329 64.1219 46.6543 63.7849 46.918 63.3585C47.0775 63.0981 47.1751 62.9158 47.2109 62.8116C47.2305 62.7595 47.2402 62.7058 47.2402 62.6505C47.2402 62.6147 47.2288 62.5854 47.2061 62.5626C47.1833 62.5398 47.123 62.5138 47.0254 62.4845C46.931 62.4519 46.8512 62.395 46.7861 62.3136C46.7243 62.2289 46.6934 62.1329 46.6934 62.0255C46.6934 61.892 46.7324 61.7846 46.8105 61.7032C46.8887 61.6219 46.9863 61.5812 47.1035 61.5812C47.2467 61.5812 47.3688 61.6414 47.4697 61.7618C47.5706 61.879 47.6211 62.0418 47.6211 62.2501C47.6211 62.5073 47.5332 62.8019 47.3574 63.1339C47.1816 63.4627 46.8431 63.9689 46.3418 64.6525C45.8405 65.336 45.2334 66.0815 44.5205 66.8888C44.029 67.4454 43.6644 67.7954 43.4268 67.9386C43.1891 68.0851 42.9857 68.1583 42.8164 68.1583C42.7155 68.1583 42.6276 68.1192 42.5527 68.0411C42.4746 67.9663 42.4355 67.8784 42.4355 67.7775C42.4355 67.6505 42.4893 67.5349 42.5967 67.4308C42.7008 67.3266 42.8148 67.2745 42.9385 67.2745C43.0036 67.2745 43.0573 67.2892 43.0996 67.3185C43.1257 67.3347 43.1549 67.3803 43.1875 67.4552C43.2168 67.5333 43.2445 67.5854 43.2705 67.6114C43.2868 67.6277 43.3063 67.6358 43.3291 67.6358C43.3486 67.6358 43.3828 67.6196 43.4316 67.587C43.6107 67.4763 43.819 67.3006 44.0566 67.0597C44.3691 66.7407 44.6003 66.4803 44.75 66.2784L44.4766 63.1827C44.431 62.6717 44.3626 62.3608 44.2715 62.2501C44.1803 62.1394 44.0273 62.0841 43.8125 62.0841C43.7441 62.0841 43.6221 62.0939 43.4463 62.1134L43.4023 61.9327L44.833 61.5812ZM48.8711 64.1593C48.8483 64.322 48.8369 64.4571 48.8369 64.5646C48.8369 64.8543 48.9395 65.1017 49.1445 65.3067C49.3496 65.5086 49.5986 65.6095 49.8916 65.6095C50.126 65.6095 50.3506 65.5623 50.5654 65.4679C50.7835 65.3702 51.1058 65.157 51.5322 64.8282L51.6348 64.9698C50.8633 65.7348 50.1276 66.1173 49.4277 66.1173C48.9525 66.1173 48.5944 65.9676 48.3535 65.6681C48.1126 65.3686 47.9922 65.0382 47.9922 64.6769C47.9922 64.1918 48.1419 63.6954 48.4414 63.1876C48.7409 62.6798 49.1169 62.2859 49.5693 62.006C50.0218 61.7228 50.4873 61.5812 50.9658 61.5812C51.3109 61.5812 51.5664 61.6511 51.7324 61.7911C51.8984 61.9311 51.9814 62.0971 51.9814 62.2892C51.9814 62.5594 51.874 62.8181 51.6592 63.0655C51.376 63.3878 50.9593 63.6482 50.4092 63.8468C50.0446 63.9803 49.5319 64.0844 48.8711 64.1593ZM48.9053 63.92C49.387 63.8647 49.7793 63.7703 50.082 63.6368C50.4824 63.4578 50.7819 63.2446 50.9805 62.9972C51.1823 62.7465 51.2832 62.5089 51.2832 62.2843C51.2832 62.1476 51.2393 62.0369 51.1514 61.9523C51.0667 61.8676 50.9447 61.8253 50.7852 61.8253C50.4531 61.8253 50.0999 62.0027 49.7256 62.3575C49.3545 62.7091 49.0811 63.2299 48.9053 63.92ZM51.7422 59.2276L52.1084 60.7706H52.0059L51.1807 59.7843L49.623 60.7706H49.4912L51.0098 59.2276H51.7422ZM49.2422 66.586C49.3822 66.586 49.4993 66.6332 49.5938 66.7276C49.6914 66.8253 49.7402 66.9425 49.7402 67.0792C49.7402 67.2159 49.6914 67.3315 49.5938 67.4259C49.4961 67.5235 49.3789 67.5724 49.2422 67.5724C49.1055 67.5724 48.9883 67.5235 48.8906 67.4259C48.7962 67.3315 48.749 67.2159 48.749 67.0792C48.749 66.9425 48.7962 66.8253 48.8906 66.7276C48.9883 66.6332 49.1055 66.586 49.2422 66.586ZM54.3301 61.5812L53.6807 63.8028C54.2894 62.8946 54.7549 62.2973 55.0771 62.0108C55.4027 61.7244 55.7152 61.5812 56.0146 61.5812C56.1774 61.5812 56.3109 61.6349 56.415 61.7423C56.5225 61.8497 56.5762 61.9897 56.5762 62.1622C56.5762 62.3575 56.529 62.6179 56.4346 62.9435L55.8389 64.9991C55.7705 65.2368 55.7363 65.3816 55.7363 65.4337C55.7363 65.4793 55.7493 65.5183 55.7754 65.5509C55.8014 65.5802 55.8291 65.5948 55.8584 65.5948C55.8975 65.5948 55.9447 65.5737 56 65.5314C56.1725 65.3946 56.3613 65.1863 56.5664 64.9064L56.7178 64.9991C56.415 65.4321 56.1286 65.7413 55.8584 65.9269C55.6696 66.0538 55.5003 66.1173 55.3506 66.1173C55.2301 66.1173 55.1341 66.0799 55.0625 66.005C54.9909 65.9334 54.9551 65.8357 54.9551 65.712C54.9551 65.5558 55.0104 65.2872 55.1211 64.9064L55.6875 62.9435C55.7591 62.6993 55.7949 62.5089 55.7949 62.3722C55.7949 62.3071 55.7738 62.255 55.7314 62.2159C55.6891 62.1736 55.637 62.1525 55.5752 62.1525C55.484 62.1525 55.375 62.1915 55.248 62.2696C55.0072 62.4161 54.7565 62.6586 54.4961 62.9972C54.2357 63.3325 53.9606 63.7622 53.6709 64.2862C53.5179 64.5629 53.391 64.8657 53.29 65.1944L53.0459 66.0001H52.3135L53.2021 62.9435C53.3063 62.5756 53.3584 62.3543 53.3584 62.2794C53.3584 62.2078 53.3291 62.1459 53.2705 62.0939C53.2152 62.0385 53.1452 62.0108 53.0605 62.0108C53.0215 62.0108 52.9531 62.0174 52.8555 62.0304L52.6699 62.0597L52.6406 61.8839L54.3301 61.5812ZM59.2471 61.5763C59.3838 61.5763 59.501 61.6251 59.5986 61.7228C59.6963 61.8172 59.7451 61.9327 59.7451 62.0694C59.7451 62.2062 59.6963 62.3233 59.5986 62.421C59.501 62.5187 59.3838 62.5675 59.2471 62.5675C59.1104 62.5675 58.9932 62.5187 58.8955 62.421C58.7979 62.3233 58.749 62.2062 58.749 62.0694C58.749 61.9327 58.7979 61.8172 58.8955 61.7228C58.9932 61.6251 59.1104 61.5763 59.2471 61.5763ZM58.2119 65.1114C58.3486 65.1114 58.4642 65.1603 58.5586 65.2579C58.653 65.3523 58.7002 65.4679 58.7002 65.6046C58.7002 65.7381 58.6514 65.8536 58.5537 65.9513C58.4593 66.0457 58.3454 66.0929 58.2119 66.0929C58.0752 66.0929 57.958 66.0457 57.8604 65.9513C57.766 65.8536 57.7188 65.7381 57.7188 65.6046C57.7188 65.4679 57.766 65.3523 57.8604 65.2579C57.958 65.1603 58.0752 65.1114 58.2119 65.1114Z" fill="#010101"/>
<path d="M7.5625 111.488H10.1699C10.8535 111.488 11.3646 111.636 11.7031 111.932C12.0417 112.225 12.2109 112.583 12.2109 113.006C12.2109 113.342 12.1035 113.667 11.8887 113.983C11.6738 114.299 11.3548 114.556 10.9316 114.754C10.5085 114.95 10.0511 115.047 9.55957 115.047C9.25358 115.047 8.86458 114.992 8.39258 114.881L7.86523 116.688C7.74154 117.118 7.67969 117.401 7.67969 117.538C7.67969 117.642 7.72363 117.728 7.81152 117.796C7.89941 117.865 8.10938 117.909 8.44141 117.928L8.39258 118.109H5.76074L5.81445 117.928C6.15951 117.928 6.39876 117.87 6.53223 117.752C6.66895 117.632 6.81543 117.303 6.97168 116.766L8.06543 112.997C8.19564 112.544 8.26074 112.241 8.26074 112.088C8.26074 111.974 8.21354 111.88 8.11914 111.805C8.02799 111.73 7.82454 111.685 7.50879 111.668L7.5625 111.488ZM8.47559 114.574C8.84342 114.668 9.13965 114.715 9.36426 114.715C9.71908 114.715 10.0413 114.642 10.3311 114.496C10.624 114.349 10.8519 114.129 11.0146 113.836C11.1807 113.543 11.2637 113.239 11.2637 112.923C11.2637 112.595 11.1628 112.334 10.9609 112.142C10.7591 111.95 10.4531 111.854 10.043 111.854C9.82161 111.854 9.55306 111.882 9.2373 111.937L8.47559 114.574ZM15.0479 111.166L13.6758 115.907C14.2682 115.015 14.7305 114.422 15.0625 114.129C15.3945 113.836 15.7119 113.69 16.0146 113.69C16.1709 113.69 16.3011 113.744 16.4053 113.851C16.5094 113.959 16.5615 114.102 16.5615 114.281C16.5615 114.496 16.516 114.756 16.4248 115.062L15.8291 117.108C15.7542 117.355 15.7168 117.492 15.7168 117.518C15.7168 117.564 15.7298 117.601 15.7559 117.63C15.7852 117.66 15.8177 117.674 15.8535 117.674C15.8958 117.674 15.9447 117.653 16 117.611C16.1855 117.468 16.3695 117.269 16.5518 117.015L16.7031 117.108C16.5924 117.28 16.4378 117.471 16.2393 117.679C16.0439 117.884 15.8747 118.028 15.7314 118.109C15.5915 118.187 15.4661 118.226 15.3555 118.226C15.235 118.226 15.1357 118.187 15.0576 118.109C14.9827 118.034 14.9453 117.936 14.9453 117.816C14.9453 117.673 15.0023 117.406 15.1162 117.015L15.6777 115.062C15.7493 114.818 15.7852 114.626 15.7852 114.486C15.7852 114.421 15.764 114.369 15.7217 114.33C15.6826 114.291 15.6305 114.271 15.5654 114.271C15.471 114.271 15.3636 114.307 15.2432 114.378C15.0218 114.515 14.7663 114.769 14.4766 115.14C14.3984 115.241 14.138 115.648 13.6953 116.361C13.5586 116.589 13.4463 116.838 13.3584 117.108L13.0459 118.109H12.3135L13.9199 112.523L14.0908 111.918C14.0908 111.833 14.055 111.758 13.9834 111.693C13.915 111.628 13.8304 111.595 13.7295 111.595C13.6709 111.595 13.5814 111.605 13.4609 111.625L13.3584 111.639V111.449L15.0479 111.166ZM22.2207 114.754C22.3184 114.709 22.3493 114.655 22.3135 114.593C22.3135 114.59 22.276 114.564 22.2012 114.515C22.1296 114.466 22.0791 114.414 22.0498 114.359C21.9847 114.251 21.9668 114.146 21.9961 114.042C22.0221 113.934 22.0921 113.849 22.2061 113.788C22.32 113.723 22.4404 113.71 22.5674 113.749C22.7106 113.794 22.8148 113.889 22.8799 114.032C22.9482 114.175 22.9548 114.331 22.8994 114.501C22.8343 114.693 22.6976 114.831 22.4893 114.916C22.3167 114.984 21.9749 115.02 21.4639 115.023L20.9707 116.717C20.8438 117.154 20.7803 117.427 20.7803 117.538C20.7803 117.652 20.8193 117.709 20.8975 117.709C20.9626 117.709 21.0228 117.684 21.0781 117.635C21.1693 117.551 21.3385 117.349 21.5859 117.03L21.7324 117.142C21.2767 117.865 20.8405 118.226 20.4238 118.226C20.1536 118.226 20.0186 118.098 20.0186 117.84C20.0186 117.736 20.0397 117.59 20.082 117.401C20.1406 117.14 20.2887 116.616 20.5264 115.829C19.9893 116.708 19.527 117.334 19.1396 117.709C18.7783 118.054 18.4316 118.226 18.0996 118.226C17.9499 118.226 17.8229 118.174 17.7188 118.07C17.6146 117.966 17.5625 117.834 17.5625 117.674C17.5625 117.433 17.6341 117.059 17.7773 116.551L18.2021 115.043C18.3063 114.671 18.3584 114.447 18.3584 114.369C18.3584 114.274 18.3145 114.227 18.2266 114.227C18.1484 114.227 18.0801 114.251 18.0215 114.3C17.9336 114.375 17.779 114.556 17.5576 114.842L17.4062 114.735C17.8555 114.038 18.3063 113.69 18.7588 113.69C19.0322 113.69 19.1689 113.827 19.1689 114.1C19.1689 114.282 19.1038 114.597 18.9736 115.043L18.5146 116.62C18.3877 117.056 18.3242 117.328 18.3242 117.435C18.3242 117.572 18.3991 117.64 18.5488 117.64C18.8353 117.64 19.2064 117.347 19.6621 116.761C19.9486 116.393 20.1862 116.047 20.375 115.721C20.5736 115.373 20.7721 114.859 20.9707 114.178L21.0781 113.807H21.8203L21.5176 114.837C21.8561 114.841 22.0905 114.813 22.2207 114.754ZM27.1963 115.218C27.1963 115.716 27.0661 116.2 26.8057 116.668C26.5387 117.154 26.179 117.533 25.7266 117.806C25.2643 118.086 24.8151 118.226 24.3789 118.226C23.9329 118.226 23.5684 118.085 23.2852 117.801C23.0052 117.515 22.8652 117.145 22.8652 116.693C22.8652 116.208 23.0036 115.726 23.2803 115.248C23.5602 114.766 23.9281 114.387 24.3838 114.11C24.8428 113.83 25.2871 113.69 25.7168 113.69C26.0944 113.69 26.4492 113.832 26.7812 114.115C26.8757 114.209 26.9717 114.304 27.0693 114.398C27.1702 114.489 27.2874 114.535 27.4209 114.535C27.4893 114.535 27.5495 114.523 27.6016 114.501C27.6569 114.474 27.696 114.435 27.7188 114.383C27.7318 114.357 27.7301 114.331 27.7139 114.305C27.652 114.273 27.5641 114.195 27.4502 114.071C27.3851 113.96 27.3672 113.853 27.3965 113.749C27.4225 113.641 27.4925 113.557 27.6064 113.495C27.7204 113.433 27.8408 113.42 27.9678 113.456C28.111 113.501 28.2152 113.596 28.2803 113.739C28.3486 113.882 28.3551 114.038 28.2998 114.208C28.2347 114.4 28.098 114.538 27.8896 114.623C27.7497 114.678 27.4974 114.706 27.1328 114.706C27.1751 114.839 27.1963 115.01 27.1963 115.218ZM26.3857 114.881C26.3857 114.585 26.3125 114.352 26.166 114.183C26.0228 114.024 25.8307 113.944 25.5898 113.944C25.1243 113.944 24.6849 114.286 24.2715 114.969C23.8678 115.637 23.666 116.319 23.666 117.015C23.666 117.318 23.7425 117.556 23.8955 117.728C24.0485 117.897 24.2471 117.982 24.4912 117.982C24.9437 117.982 25.375 117.64 25.7852 116.957C26.1855 116.286 26.3857 115.594 26.3857 114.881ZM26.3564 111.263L26.8887 112.943H26.7324L25.2773 111.263H26.3564ZM30.1211 113.69L29.4717 115.912C30.0804 115.003 30.5459 114.406 30.8682 114.12C31.1937 113.833 31.5062 113.69 31.8057 113.69C31.9684 113.69 32.1019 113.744 32.2061 113.851C32.3135 113.959 32.3672 114.099 32.3672 114.271C32.3672 114.466 32.32 114.727 32.2256 115.052L31.6299 117.108C31.5615 117.346 31.5273 117.49 31.5273 117.543C31.5273 117.588 31.5404 117.627 31.5664 117.66C31.5924 117.689 31.6201 117.704 31.6494 117.704C31.6885 117.704 31.7357 117.682 31.791 117.64C31.9635 117.503 32.1523 117.295 32.3574 117.015L32.5088 117.108C32.2061 117.541 31.9196 117.85 31.6494 118.036C31.4606 118.163 31.2913 118.226 31.1416 118.226C31.0212 118.226 30.9251 118.189 30.8535 118.114C30.7819 118.042 30.7461 117.945 30.7461 117.821C30.7461 117.665 30.8014 117.396 30.9121 117.015L31.4785 115.052C31.5501 114.808 31.5859 114.618 31.5859 114.481C31.5859 114.416 31.5648 114.364 31.5225 114.325C31.4801 114.282 31.4281 114.261 31.3662 114.261C31.2751 114.261 31.166 114.3 31.0391 114.378C30.7982 114.525 30.5475 114.767 30.2871 115.106C30.0267 115.441 29.7516 115.871 29.4619 116.395C29.3089 116.672 29.182 116.974 29.0811 117.303L28.8369 118.109H28.1045L28.9932 115.052C29.0973 114.684 29.1494 114.463 29.1494 114.388C29.1494 114.317 29.1201 114.255 29.0615 114.203C29.0062 114.147 28.9362 114.12 28.8516 114.12C28.8125 114.12 28.7441 114.126 28.6465 114.139L28.4609 114.168L28.4316 113.993L30.1211 113.69ZM38.124 113.993L37.9824 114.501H37.167C37.2288 114.676 37.2598 114.841 37.2598 114.994C37.2598 115.423 37.0775 115.806 36.7129 116.141C36.3451 116.476 35.8405 116.662 35.1992 116.698C34.8542 116.802 34.5954 116.926 34.4229 117.069C34.3577 117.121 34.3252 117.175 34.3252 117.23C34.3252 117.295 34.3545 117.355 34.4131 117.411C34.4717 117.463 34.6198 117.516 34.8574 117.572L35.8047 117.792C36.3288 117.915 36.6755 118.062 36.8447 118.231C37.0107 118.404 37.0938 118.602 37.0938 118.827C37.0938 119.094 36.9945 119.338 36.7959 119.559C36.6006 119.78 36.3125 119.953 35.9316 120.077C35.554 120.204 35.1357 120.267 34.6768 120.267C34.2731 120.267 33.9053 120.218 33.5732 120.121C33.2412 120.026 33.0036 119.898 32.8604 119.735C32.7171 119.572 32.6455 119.404 32.6455 119.232C32.6455 119.092 32.6927 118.946 32.7871 118.793C32.8783 118.643 32.9938 118.519 33.1338 118.421C33.2217 118.36 33.4707 118.213 33.8809 117.982C33.7311 117.865 33.6562 117.736 33.6562 117.596C33.6562 117.466 33.7214 117.328 33.8516 117.181C33.985 117.035 34.265 116.874 34.6914 116.698C34.3333 116.629 34.0485 116.48 33.8369 116.249C33.6286 116.017 33.5244 115.76 33.5244 115.477C33.5244 115.015 33.7262 114.601 34.1299 114.237C34.5368 113.872 35.0771 113.69 35.751 113.69C35.9951 113.69 36.1953 113.714 36.3516 113.763C36.5078 113.812 36.6592 113.889 36.8057 113.993H38.124ZM36.4297 114.759C36.4297 114.499 36.3564 114.294 36.21 114.144C36.0667 113.994 35.8779 113.919 35.6436 113.919C35.2757 113.919 34.9714 114.105 34.7305 114.476C34.4928 114.844 34.374 115.228 34.374 115.628C34.374 115.879 34.4505 116.084 34.6035 116.244C34.7565 116.403 34.9421 116.483 35.1602 116.483C35.3327 116.483 35.4987 116.436 35.6582 116.341C35.821 116.247 35.9577 116.117 36.0684 115.951C36.179 115.785 36.2669 115.573 36.332 115.316C36.3971 115.059 36.4297 114.873 36.4297 114.759ZM34.0908 118.109C33.8271 118.229 33.627 118.384 33.4902 118.573C33.3568 118.762 33.29 118.947 33.29 119.129C33.29 119.344 33.3877 119.522 33.583 119.662C33.863 119.863 34.2731 119.964 34.8135 119.964C35.279 119.964 35.6761 119.885 36.0049 119.725C36.3369 119.569 36.5029 119.365 36.5029 119.115C36.5029 118.988 36.4411 118.867 36.3174 118.753C36.1969 118.64 35.9609 118.547 35.6094 118.475C35.4173 118.436 34.9111 118.314 34.0908 118.109ZM41.7275 111.166L38.0068 118.26H37.5771L41.3223 111.166H41.7275ZM45.8633 111.488H48.1045L48.0508 111.668C47.735 111.714 47.4583 111.81 47.2207 111.957C46.9863 112.1 46.6657 112.388 46.2588 112.821L44.54 114.579L45.0234 116.351C45.069 116.52 45.1536 116.782 45.2773 117.137C45.3555 117.365 45.4336 117.526 45.5117 117.621C45.5898 117.715 45.6875 117.788 45.8047 117.84C45.9251 117.889 46.1058 117.918 46.3467 117.928L46.293 118.109H43.6953L43.749 117.928C44.016 117.918 44.208 117.868 44.3252 117.777C44.4131 117.712 44.457 117.627 44.457 117.523C44.457 117.432 44.4147 117.232 44.3301 116.922L43.8662 115.257L42.3135 116.825C42.0107 117.134 41.8301 117.337 41.7715 117.435C41.7357 117.494 41.7178 117.551 41.7178 117.606C41.7178 117.704 41.7666 117.783 41.8643 117.845C41.9098 117.871 42.0482 117.899 42.2793 117.928L42.2305 118.109H40.0283L40.082 117.928C40.3587 117.902 40.585 117.839 40.7607 117.738C41.0179 117.585 41.3727 117.28 41.8252 116.825L43.749 114.891L43.2217 112.982C43.0622 112.396 42.9222 112.036 42.8018 111.903C42.6846 111.766 42.4779 111.688 42.1816 111.668L42.2305 111.488H44.5986L44.54 111.668C44.3219 111.668 44.1738 111.683 44.0957 111.712C44.0208 111.738 43.9622 111.781 43.9199 111.839C43.8809 111.895 43.8613 111.958 43.8613 112.03C43.8613 112.108 43.9004 112.29 43.9785 112.577L44.4277 114.208L45.4678 113.172C45.8779 112.762 46.1595 112.432 46.3125 112.181C46.3678 112.093 46.3955 112.015 46.3955 111.947C46.3955 111.872 46.3646 111.813 46.3027 111.771C46.2148 111.712 46.0505 111.678 45.8096 111.668L45.8633 111.488ZM51.5029 113.69L50.5508 117.001L50.4434 117.445C50.4336 117.487 50.4287 117.523 50.4287 117.552C50.4287 117.604 50.445 117.65 50.4775 117.689C50.5036 117.718 50.5361 117.733 50.5752 117.733C50.6175 117.733 50.6729 117.707 50.7412 117.655C50.8682 117.56 51.0374 117.365 51.249 117.069L51.415 117.186C51.1904 117.525 50.9593 117.783 50.7217 117.962C50.484 118.138 50.2643 118.226 50.0625 118.226C49.9225 118.226 49.8167 118.19 49.7451 118.119C49.6768 118.05 49.6426 117.949 49.6426 117.816C49.6426 117.656 49.6784 117.446 49.75 117.186L49.8525 116.82C49.4261 117.376 49.0339 117.765 48.6758 117.987C48.4186 118.146 48.1663 118.226 47.9189 118.226C47.6813 118.226 47.4762 118.128 47.3037 117.933C47.1312 117.735 47.0449 117.463 47.0449 117.118C47.0449 116.6 47.1995 116.055 47.5088 115.482C47.8213 114.906 48.2168 114.445 48.6953 114.1C49.0697 113.827 49.4229 113.69 49.7549 113.69C49.9535 113.69 50.1178 113.742 50.248 113.846C50.3815 113.95 50.4824 114.123 50.5508 114.364L50.7266 113.807L51.5029 113.69ZM49.7646 113.944C49.5563 113.944 49.335 114.042 49.1006 114.237C48.7686 114.514 48.4723 114.924 48.2119 115.467C47.9548 116.011 47.8262 116.502 47.8262 116.942C47.8262 117.163 47.8815 117.339 47.9922 117.469C48.1029 117.596 48.2298 117.66 48.373 117.66C48.7279 117.66 49.1136 117.398 49.5303 116.874C50.0869 116.177 50.3652 115.462 50.3652 114.73C50.3652 114.453 50.3115 114.253 50.2041 114.129C50.0967 114.006 49.9502 113.944 49.7646 113.944ZM51.5762 111.449H51.7227C51.7324 111.859 51.6462 112.175 51.4639 112.396C51.2816 112.617 51.0684 112.728 50.8242 112.728C50.5866 112.728 50.3115 112.629 49.999 112.43C49.6898 112.232 49.4993 112.116 49.4277 112.084C49.3724 112.057 49.3089 112.044 49.2373 112.044C49.1169 112.044 49.0192 112.087 48.9443 112.171C48.8727 112.256 48.8141 112.435 48.7686 112.709H48.6123C48.6351 112.253 48.7327 111.927 48.9053 111.732C49.0778 111.537 49.2861 111.439 49.5303 111.439C49.7679 111.439 50.0576 111.553 50.3994 111.781C50.7445 112.009 50.9805 112.123 51.1074 112.123C51.2214 112.123 51.3141 112.08 51.3857 111.996C51.4801 111.888 51.5436 111.706 51.5762 111.449ZM53.9346 113.685C54.0713 113.685 54.1885 113.734 54.2861 113.832C54.3838 113.926 54.4326 114.042 54.4326 114.178C54.4326 114.315 54.3838 114.432 54.2861 114.53C54.1885 114.627 54.0713 114.676 53.9346 114.676C53.7979 114.676 53.6807 114.627 53.583 114.53C53.4854 114.432 53.4365 114.315 53.4365 114.178C53.4365 114.042 53.4854 113.926 53.583 113.832C53.6807 113.734 53.7979 113.685 53.9346 113.685ZM52.8994 117.22C53.0361 117.22 53.1517 117.269 53.2461 117.367C53.3405 117.461 53.3877 117.577 53.3877 117.713C53.3877 117.847 53.3389 117.962 53.2412 118.06C53.1468 118.154 53.0329 118.202 52.8994 118.202C52.7627 118.202 52.6455 118.154 52.5479 118.06C52.4535 117.962 52.4062 117.847 52.4062 117.713C52.4062 117.577 52.4535 117.461 52.5479 117.367C52.6455 117.269 52.7627 117.22 52.8994 117.22Z" fill="#010101"/>
<path d="M7.46484 12.3789H12.4941L11.9521 14.1367H11.7666C11.8285 13.8796 11.8594 13.6501 11.8594 13.4482C11.8594 13.2106 11.7861 13.0316 11.6396 12.9111C11.529 12.82 11.2441 12.7744 10.7852 12.7744H10.2627L8.9541 17.335C8.78809 17.9079 8.70508 18.2611 8.70508 18.3945C8.70508 18.5182 8.75716 18.6208 8.86133 18.7021C8.96549 18.7803 9.14941 18.8193 9.41309 18.8193H9.6377L9.5791 19H6.69824L6.75195 18.8193H6.87891C7.13281 18.8193 7.32812 18.7786 7.46484 18.6973C7.55924 18.6419 7.64388 18.5426 7.71875 18.3994C7.79688 18.2529 7.9043 17.9453 8.04102 17.4766L9.41309 12.7744H9.01758C8.63672 12.7744 8.3291 12.8232 8.09473 12.9209C7.86361 13.0186 7.67643 13.1602 7.5332 13.3457C7.38997 13.5312 7.27279 13.7949 7.18164 14.1367H7.00098L7.46484 12.3789ZM13.8662 14.5811L12.8994 18.0039C12.8343 18.235 12.8018 18.3734 12.8018 18.4189C12.8018 18.471 12.8164 18.5133 12.8457 18.5459C12.8783 18.5785 12.9157 18.5947 12.958 18.5947C13.0068 18.5947 13.0654 18.5687 13.1338 18.5166C13.3193 18.3701 13.5065 18.1618 13.6953 17.8916L13.8662 18.0039C13.6449 18.3424 13.3844 18.6273 13.085 18.8584C12.8636 19.0309 12.652 19.1172 12.4502 19.1172C12.3167 19.1172 12.2077 19.0781 12.123 19C12.0384 18.9186 11.9961 18.8177 11.9961 18.6973C11.9961 18.5768 12.0368 18.3766 12.1182 18.0967L12.7529 15.9092C12.8571 15.5511 12.9092 15.3265 12.9092 15.2354C12.9092 15.1637 12.8831 15.1051 12.8311 15.0596C12.7822 15.014 12.7139 14.9912 12.626 14.9912C12.5544 14.9912 12.4062 15.0091 12.1816 15.0449V14.8545L13.8662 14.5811ZM14.3008 13.2285C14.0892 13.388 13.9557 13.4987 13.9004 13.5605C13.8483 13.6224 13.8011 13.7119 13.7588 13.8291H13.5977C13.6758 13.6077 13.8223 13.3783 14.0371 13.1406C14.1152 13.056 14.208 12.9193 14.3154 12.7305C14.3838 12.4896 14.2975 12.3691 14.0566 12.3691C13.8711 12.3691 13.7637 12.418 13.7344 12.5156C13.7279 12.5384 13.7344 12.5791 13.7539 12.6377C13.7734 12.693 13.7783 12.737 13.7686 12.7695C13.736 12.8835 13.6579 12.9404 13.5342 12.9404C13.3747 12.9404 13.321 12.8477 13.373 12.6621C13.4121 12.5286 13.5081 12.418 13.6611 12.3301C13.8141 12.2389 13.9883 12.1934 14.1836 12.1934C14.4375 12.1934 14.6068 12.2568 14.6914 12.3838C14.7565 12.4814 14.7728 12.5889 14.7402 12.7061C14.6914 12.8688 14.5449 13.043 14.3008 13.2285ZM16.5566 14.5811L15.9072 16.8027C16.516 15.8945 16.9814 15.2972 17.3037 15.0107C17.6292 14.7243 17.9417 14.5811 18.2412 14.5811C18.404 14.5811 18.5374 14.6348 18.6416 14.7422C18.749 14.8496 18.8027 14.9896 18.8027 15.1621C18.8027 15.3574 18.7555 15.6178 18.6611 15.9434L18.0654 17.999C17.9971 18.2367 17.9629 18.3815 17.9629 18.4336C17.9629 18.4792 17.9759 18.5182 18.002 18.5508C18.028 18.5801 18.0557 18.5947 18.085 18.5947C18.124 18.5947 18.1712 18.5736 18.2266 18.5312C18.3991 18.3945 18.5879 18.1862 18.793 17.9062L18.9443 17.999C18.6416 18.432 18.3551 18.7412 18.085 18.9268C17.8962 19.0537 17.7269 19.1172 17.5771 19.1172C17.4567 19.1172 17.3607 19.0798 17.2891 19.0049C17.2174 18.9333 17.1816 18.8356 17.1816 18.7119C17.1816 18.5557 17.237 18.2871 17.3477 17.9062L17.9141 15.9434C17.9857 15.6992 18.0215 15.5088 18.0215 15.3721C18.0215 15.307 18.0003 15.2549 17.958 15.2158C17.9157 15.1735 17.8636 15.1523 17.8018 15.1523C17.7106 15.1523 17.6016 15.1914 17.4746 15.2695C17.2337 15.416 16.9831 15.6585 16.7227 15.9971C16.4622 16.3324 16.1872 16.762 15.8975 17.2861C15.7445 17.5628 15.6175 17.8656 15.5166 18.1943L15.2725 19H14.54L15.4287 15.9434C15.5329 15.5755 15.585 15.3542 15.585 15.2793C15.585 15.2077 15.5557 15.1458 15.4971 15.0938C15.4417 15.0384 15.3717 15.0107 15.2871 15.0107C15.248 15.0107 15.1797 15.0173 15.082 15.0303L14.8965 15.0596L14.8672 14.8838L16.5566 14.5811ZM22.2842 12.0566L20.9121 16.7979C21.5046 15.9059 21.9668 15.3135 22.2988 15.0205C22.6309 14.7275 22.9482 14.5811 23.251 14.5811C23.4072 14.5811 23.5374 14.6348 23.6416 14.7422C23.7458 14.8496 23.7979 14.9928 23.7979 15.1719C23.7979 15.3867 23.7523 15.6471 23.6611 15.9531L23.0654 17.999C22.9906 18.2464 22.9531 18.3831 22.9531 18.4092C22.9531 18.4548 22.9661 18.4922 22.9922 18.5215C23.0215 18.5508 23.054 18.5654 23.0898 18.5654C23.1322 18.5654 23.181 18.5443 23.2363 18.502C23.4219 18.3587 23.6058 18.1602 23.7881 17.9062L23.9395 17.999C23.8288 18.1715 23.6742 18.362 23.4756 18.5703C23.2803 18.7754 23.111 18.9186 22.9678 19C22.8278 19.0781 22.7025 19.1172 22.5918 19.1172C22.4714 19.1172 22.3721 19.0781 22.2939 19C22.2191 18.9251 22.1816 18.8275 22.1816 18.707C22.1816 18.5638 22.2386 18.2969 22.3525 17.9062L22.9141 15.9531C22.9857 15.709 23.0215 15.5169 23.0215 15.377C23.0215 15.3118 23.0003 15.2598 22.958 15.2207C22.9189 15.1816 22.8669 15.1621 22.8018 15.1621C22.7074 15.1621 22.5999 15.1979 22.4795 15.2695C22.2581 15.4062 22.0026 15.6602 21.7129 16.0312C21.6348 16.1322 21.3743 16.5391 20.9316 17.252C20.7949 17.4798 20.6826 17.7288 20.5947 17.999L20.2822 19H19.5498L21.1562 13.4141L21.3271 12.8086C21.3271 12.724 21.2913 12.6491 21.2197 12.584C21.1514 12.5189 21.0667 12.4863 20.9658 12.4863C20.9072 12.4863 20.8177 12.4961 20.6973 12.5156L20.5947 12.5303V12.3398L22.2842 12.0566ZM28.1631 12.0566L24.4424 19.1514H24.0127L27.7578 12.0566H28.1631ZM28.5977 12.3789H33.627L33.085 14.1367H32.8994C32.9613 13.8796 32.9922 13.6501 32.9922 13.4482C32.9922 13.2106 32.9189 13.0316 32.7725 12.9111C32.6618 12.82 32.377 12.7744 31.918 12.7744H31.3955L30.0869 17.335C29.9209 17.9079 29.8379 18.2611 29.8379 18.3945C29.8379 18.5182 29.89 18.6208 29.9941 18.7021C30.0983 18.7803 30.2822 18.8193 30.5459 18.8193H30.7705L30.7119 19H27.8311L27.8848 18.8193H28.0117C28.2656 18.8193 28.4609 18.7786 28.5977 18.6973C28.6921 18.6419 28.7767 18.5426 28.8516 18.3994C28.9297 18.2529 29.0371 17.9453 29.1738 17.4766L30.5459 12.7744H30.1504C29.7695 12.7744 29.4619 12.8232 29.2275 12.9209C28.9964 13.0186 28.8092 13.1602 28.666 13.3457C28.5228 13.5312 28.4056 13.7949 28.3145 14.1367H28.1338L28.5977 12.3789ZM34.2617 12.3789H36.8691C37.5527 12.3789 38.0638 12.527 38.4023 12.8232C38.7409 13.1162 38.9102 13.4743 38.9102 13.8975C38.9102 14.2327 38.8027 14.5583 38.5879 14.874C38.373 15.1898 38.054 15.4469 37.6309 15.6455C37.2077 15.8408 36.7503 15.9385 36.2588 15.9385C35.9528 15.9385 35.5638 15.8831 35.0918 15.7725L34.5645 17.5791C34.4408 18.0088 34.3789 18.292 34.3789 18.4287C34.3789 18.5329 34.4229 18.6191 34.5107 18.6875C34.5986 18.7559 34.8086 18.7998 35.1406 18.8193L35.0918 19H32.46L32.5137 18.8193C32.8587 18.8193 33.098 18.7607 33.2314 18.6436C33.3682 18.5231 33.5146 18.1943 33.6709 17.6572L34.7646 13.8877C34.8949 13.4352 34.96 13.1325 34.96 12.9795C34.96 12.8656 34.9128 12.7712 34.8184 12.6963C34.7272 12.6214 34.5238 12.5758 34.208 12.5596L34.2617 12.3789ZM35.1748 15.4648C35.5426 15.5592 35.8389 15.6064 36.0635 15.6064C36.4183 15.6064 36.7406 15.5332 37.0303 15.3867C37.3232 15.2402 37.5511 15.0205 37.7139 14.7275C37.8799 14.4346 37.9629 14.1302 37.9629 13.8145C37.9629 13.4857 37.862 13.2253 37.6602 13.0332C37.4583 12.8411 37.1523 12.7451 36.7422 12.7451C36.5208 12.7451 36.2523 12.7728 35.9365 12.8281L35.1748 15.4648ZM40.9365 14.5762C41.0732 14.5762 41.1904 14.625 41.2881 14.7227C41.3857 14.8171 41.4346 14.9326 41.4346 15.0693C41.4346 15.2061 41.3857 15.3232 41.2881 15.4209C41.1904 15.5186 41.0732 15.5674 40.9365 15.5674C40.7998 15.5674 40.6826 15.5186 40.585 15.4209C40.4873 15.3232 40.4385 15.2061 40.4385 15.0693C40.4385 14.9326 40.4873 14.8171 40.585 14.7227C40.6826 14.625 40.7998 14.5762 40.9365 14.5762ZM39.9014 18.1113C40.0381 18.1113 40.1536 18.1602 40.248 18.2578C40.3424 18.3522 40.3896 18.4678 40.3896 18.6045C40.3896 18.738 40.3408 18.8535 40.2432 18.9512C40.1488 19.0456 40.0348 19.0928 39.9014 19.0928C39.7646 19.0928 39.6475 19.0456 39.5498 18.9512C39.4554 18.8535 39.4082 18.738 39.4082 18.6045C39.4082 18.4678 39.4554 18.3522 39.5498 18.2578C39.6475 18.1602 39.7646 18.1113 39.9014 18.1113Z" fill="#010101"/>
<line x1="2.2093e-08" y1="168.75" x2="362.001" y2="168.75" stroke="black" stroke-opacity="0.5" stroke-width="0.5"/>
</g>
<defs>
<clipPath id="clip0_1_3">
<rect width="362" height="563" fill="white"/>
</clipPath>
</defs>
</svg>